<svg width="250" height="17" viewBox="0 0 250 17" fill="none" xmlns="http://www.w3.org/2000/svg">
<path d="M9.39425 9.11978C9.20257 8.70643 8.89976 8.35572 8.52032 8.10759C8.58446 8.05402 8.66717 7.97544 8.76844 7.87318C8.88449 7.75161 8.98442 7.61534 9.06571 7.46779C9.17131 7.27841 9.25487 7.07735 9.31471 6.86859C9.38836 6.60229 9.42337 6.32662 9.41865 6.05018C9.41697 5.64036 9.35191 5.23332 9.22582 4.84377C9.09786 4.4388 8.88142 4.06802 8.59248 3.75882C8.26041 3.41563 7.85794 3.15 7.41333 2.98059C6.83299 2.76635 6.21774 2.66485 5.60003 2.68144H2.96543V5.19516H1.48798e-05V13.5829C-0.000465801 13.6403 0.0107042 13.6972 0.032837 13.7501C0.0549698 13.803 0.0875967 13.8508 0.128708 13.8905C0.168099 13.932 0.215508 13.9649 0.268 13.9871C0.320492 14.0094 0.376951 14.0205 0.433882 14.0199H5.93704C6.52856 14.0364 7.11747 13.9346 7.66984 13.7203C8.10575 13.5447 8.4975 13.2734 8.81665 12.926C9.10778 12.6028 9.32437 12.2186 9.45087 11.8008C9.57873 11.3809 9.64358 10.944 9.64325 10.5046C9.65531 10.0306 9.57055 9.55923 9.39425 9.11978ZM2.96852 5.19204H5.4554C5.58748 5.18248 5.72012 5.19976 5.84546 5.24287C5.97081 5.28597 6.08632 5.35401 6.18516 5.44297C6.26967 5.53213 6.33533 5.63773 6.37814 5.75333C6.42094 5.86892 6.43999 5.99211 6.43414 6.11538C6.44003 6.23858 6.42099 6.36171 6.37819 6.47724C6.33538 6.59277 6.2697 6.69828 6.18516 6.78734C6.08646 6.87654 5.97098 6.94477 5.84561 6.98795C5.72023 7.03114 5.58753 7.04839 5.4554 7.03869H2.96852V5.19204ZM6.38595 11.2258C6.28276 11.3224 6.16149 11.3972 6.02927 11.4459C5.89704 11.4946 5.75651 11.5161 5.61593 11.5093H2.96852V9.53366H5.61593C5.75649 9.52672 5.89699 9.54819 6.02922 9.5968C6.16145 9.64541 6.28273 9.72018 6.38595 9.81673C6.57087 10.0037 6.67474 10.2571 6.67474 10.5213C6.67474 10.7855 6.57087 11.0389 6.38595 11.2258V11.2258Z" fill="#272D71"/>
<path d="M24.2725 11.4303C24.387 11.4319 24.4963 11.4785 24.5773 11.5602C24.6582 11.6419 24.7044 11.7523 24.706 11.8678V13.585C24.7045 13.7005 24.6584 13.8109 24.5774 13.8925C24.4964 13.9741 24.387 14.0205 24.2725 14.0217H16.6678C16.5534 14.0205 16.4439 13.9741 16.3629 13.8925C16.2819 13.8109 16.2358 13.7005 16.2344 13.585V3.12074C16.2339 3.06324 16.2451 3.00625 16.2672 2.95327C16.2893 2.90029 16.322 2.85243 16.3631 2.81265C16.4024 2.77125 16.4498 2.73843 16.5022 2.71624C16.5546 2.69404 16.611 2.68294 16.6678 2.68362H24.1448C24.2016 2.68307 24.2579 2.69422 24.3103 2.71641C24.3627 2.7386 24.4101 2.77135 24.4495 2.81265C24.4904 2.85254 24.5229 2.90043 24.5448 2.9534C24.5668 3.00637 24.5779 3.06331 24.5773 3.12074V4.83836C24.5763 4.95384 24.5304 5.06429 24.4495 5.14594C24.3686 5.22759 24.2592 5.27392 24.1448 5.27497H19.2028V7.02435H23.7913C23.906 7.02583 24.0155 7.07245 24.0965 7.15427C24.1776 7.2361 24.2237 7.34665 24.2252 7.46236V9.17909C24.2237 9.29469 24.1775 9.40511 24.0964 9.48677C24.0153 9.56843 23.9058 9.61485 23.7913 9.61612H19.2028V11.4303H24.2725Z" fill="#272D71"/>
<path d="M39.6157 2.68362C39.6725 2.68302 39.7288 2.69416 39.7812 2.71635C39.8336 2.73854 39.881 2.77131 39.9204 2.81265C39.9614 2.85251 39.9939 2.90039 40.0159 2.95336C40.0379 3.00632 40.0491 3.06326 40.0486 3.12071V4.83836C40.0474 4.95385 40.0014 5.06428 39.9205 5.14591C39.8395 5.22755 39.7301 5.2739 39.6157 5.275H36.7913V13.585C36.79 13.7005 36.744 13.8109 36.6631 13.8926C36.5822 13.9742 36.4728 14.0207 36.3584 14.022H34.2563C34.1419 14.0208 34.0325 13.9744 33.9516 13.8927C33.8708 13.8109 33.8249 13.7005 33.8237 13.585V5.275H30.999C30.8846 5.27398 30.7751 5.22765 30.6942 5.14598C30.6133 5.06432 30.5674 4.95385 30.5664 4.83836V3.12071C30.5659 3.06329 30.5769 3.00635 30.5989 2.95339C30.6209 2.90042 30.6533 2.85253 30.6942 2.81265C30.7337 2.77138 30.781 2.73865 30.8334 2.71647C30.8858 2.69429 30.9421 2.68311 30.9989 2.68362H39.6157Z" fill="#272D71"/>
<path d="M55.338 13.4201L51.8401 3.21572C51.7875 3.08212 51.7085 2.96075 51.608 2.85899C51.5429 2.79679 51.4659 2.74889 51.3816 2.7183C51.2973 2.68771 51.2077 2.6751 51.1183 2.68127H48.5191C48.4298 2.67497 48.3401 2.68752 48.2558 2.71812C48.1715 2.74871 48.0944 2.79669 48.0295 2.85899C47.9285 2.96049 47.8493 3.08193 47.7969 3.21572L44.2989 13.4201C44.2638 13.4968 44.242 13.5789 44.2344 13.663C44.2356 13.7572 44.2732 13.8473 44.3392 13.9139C44.4052 13.9806 44.4944 14.0186 44.5878 14.0198H46.6094C46.7738 14.036 46.938 13.9865 47.0667 13.8819C47.1454 13.8098 47.2036 13.7178 47.2352 13.6153L47.6849 12.2701H51.9523L52.4012 13.6153C52.433 13.7177 52.4911 13.8097 52.5697 13.8819C52.6986 13.9865 52.8629 14.036 53.0275 14.0198H55.0487C55.1422 14.019 55.2316 13.9811 55.2977 13.9144C55.3638 13.8477 55.4012 13.7574 55.402 13.663C55.3945 13.579 55.3728 13.4968 55.338 13.4201ZM48.5191 9.75981L49.8185 5.87228L51.1184 9.75981H48.5191Z" fill="#272D71"/>
<path d="M69.6145 9.71597C69.5293 9.43661 69.4079 9.16983 69.2536 8.92253C69.1103 8.69286 68.9346 8.48545 68.7322 8.3068C68.5443 8.14148 68.337 8.00021 68.1148 7.88622C68.2898 7.80107 68.454 7.69493 68.6039 7.57011C68.7804 7.42361 68.9345 7.25164 69.0612 7.05977C69.2069 6.83975 69.3205 6.59978 69.3987 6.34718C69.488 6.04785 69.5311 5.73642 69.5265 5.42384C69.5288 5.04879 69.4664 4.67621 69.3421 4.32278C69.2175 3.97467 69.0174 3.65905 68.7565 3.399C68.468 3.11617 68.1234 2.89826 67.7455 2.75962C67.2823 2.59328 66.793 2.51358 66.3015 2.52441H62.1141C61.8783 2.52441 61.761 2.64899 61.761 2.89722V13.5062C61.7541 13.5546 61.7584 13.604 61.7737 13.6505C61.789 13.6969 61.8148 13.7392 61.8491 13.7738C61.8833 13.8084 61.9251 13.8345 61.9711 13.85C62.0171 13.8654 62.0661 13.8699 62.1141 13.8629H66.4138C66.908 13.8727 67.3991 13.7819 67.8578 13.5959C68.2522 13.4333 68.6078 13.1876 68.9007 12.8753C69.1763 12.5772 69.3917 12.2278 69.5349 11.8466C69.6784 11.4663 69.7516 11.0627 69.7507 10.6558C69.7533 10.3373 69.7073 10.0203 69.6145 9.71597ZM62.7712 3.49686H66.0931C67.7074 3.49686 68.515 4.1392 68.5158 5.42388C68.5325 5.70382 68.4864 5.98395 68.3807 6.24335C68.2751 6.50274 68.1128 6.73468 67.9059 6.92185C67.4991 7.27371 66.8948 7.44932 66.0932 7.4487H62.7712V3.49686ZM68.0984 12.2596C67.6707 12.6806 67.0557 12.8912 66.2533 12.8914H62.7712V8.42071H66.2533C67.0561 8.42071 67.6711 8.62847 68.0984 9.044C68.3113 9.2523 68.4784 9.50341 68.589 9.78106C68.6997 10.0587 68.7513 10.3567 68.7406 10.6558C68.7497 10.9535 68.6973 11.2498 68.5868 11.526C68.4762 11.8021 68.3099 12.0519 68.0984 12.2596Z" fill="#272D71"/>
<path d="M78.2012 13.0498H83.7367C83.7868 13.0426 83.8378 13.0472 83.8859 13.0633C83.9339 13.0794 83.9775 13.1066 84.0134 13.1426C84.0492 13.1787 84.0762 13.2227 84.0922 13.2712C84.1083 13.3196 84.113 13.3712 84.1059 13.4218V13.6647C84.1059 13.9026 83.9828 14.0215 83.7366 14.0214H77.544C77.496 14.0283 77.4471 14.0239 77.4011 14.0084C77.355 13.993 77.3132 13.9669 77.2789 13.9323C77.2447 13.8976 77.2188 13.8554 77.2035 13.809C77.1882 13.7625 77.1838 13.7131 77.1907 13.6647V3.03962C77.1838 2.99116 77.1882 2.94175 77.2035 2.8953C77.2188 2.84885 77.2447 2.80664 77.2789 2.77202C77.3132 2.7374 77.355 2.71132 77.4011 2.69584C77.4471 2.68037 77.496 2.67593 77.544 2.68287H77.8487C77.8967 2.67602 77.9456 2.68053 77.9915 2.69605C78.0374 2.71157 78.0791 2.73767 78.1133 2.77229C78.1475 2.8069 78.1733 2.84908 78.1885 2.89548C78.2038 2.94188 78.2081 2.99123 78.2012 3.03962L78.2012 13.0498Z" fill="#272D71"/>
<path d="M98.6602 6.99409C98.654 6.32329 98.5375 5.65818 98.3152 5.02598C98.1283 4.5045 97.8329 4.0295 97.4488 3.63296C97.0755 3.25787 96.623 2.9729 96.1251 2.79938C95.0178 2.43146 93.8229 2.43146 92.7157 2.79938C92.2208 2.9741 91.7713 3.259 91.4004 3.63296C91.0163 4.0295 90.7209 4.50451 90.5339 5.026C90.3114 5.65812 90.1946 6.32326 90.1885 6.99411C90.1669 7.48078 90.1561 7.93456 90.1563 8.35545C90.1563 8.77603 90.167 9.22933 90.1885 9.71533C90.231 11.2486 90.6134 12.377 91.3358 13.1006C92.0576 13.8243 93.0872 14.1863 94.4246 14.1865C95.7505 14.1865 96.7773 13.8245 97.505 13.1006C98.2321 12.3777 98.6172 11.2493 98.6602 9.71533C98.6819 9.23001 98.6926 8.77671 98.6925 8.35545C98.6923 7.9342 98.6816 7.48041 98.6602 6.99409ZM97.6655 8.35541V8.96216C97.6655 9.1729 97.6602 9.39703 97.6496 9.63457C97.6428 10.1889 97.5478 10.7385 97.3683 11.2625C97.224 11.6763 96.9942 12.0545 96.6943 12.372C96.4144 12.6616 96.0709 12.8808 95.6917 13.0118C94.8678 13.2815 93.9805 13.2815 93.1566 13.0118C92.7774 12.8808 92.4339 12.6616 92.154 12.372C91.8545 12.0541 91.6248 11.676 91.48 11.2625C91.3004 10.7386 91.2057 10.1889 91.1996 9.63457C91.1881 9.39696 91.1805 9.17291 91.1748 8.96216C91.1699 8.75186 91.1673 8.54915 91.1673 8.35541C91.1673 8.16023 91.1698 7.96035 91.1748 7.75577C91.1805 7.55039 91.1881 7.32358 91.1996 7.07532C91.2072 6.52362 91.3019 5.97667 91.48 5.45503C91.6239 5.03672 91.8569 4.65529 92.1624 4.33751C92.4463 4.04903 92.792 3.83027 93.173 3.69813C93.9858 3.42785 94.863 3.42785 95.6758 3.69813C96.0569 3.83026 96.4028 4.04902 96.6869 4.33751C96.9919 4.65547 97.2245 5.03688 97.3684 5.45505C97.5464 5.97675 97.6413 6.52363 97.6497 7.07534C97.6603 7.3236 97.6656 7.55042 97.6656 7.75579L97.6655 8.35541Z" fill="#272D71"/>
<path d="M106.617 6.9919C106.585 7.88844 106.585 8.79555 106.617 9.71322C106.66 10.9446 106.964 11.8355 107.532 12.3859C108.098 12.9369 108.873 13.2122 109.858 13.2119C110.254 13.2153 110.649 13.1746 111.036 13.0905C111.376 13.0177 111.698 12.8773 111.983 12.6775C112.265 12.4722 112.503 12.2103 112.681 11.9082C112.894 11.5333 113.046 11.1259 113.129 10.7018C113.137 10.5992 113.183 10.5034 113.258 10.4339C113.323 10.3852 113.402 10.3598 113.482 10.3615H113.803C113.894 10.3595 113.983 10.3911 114.052 10.4504C114.086 10.4784 114.112 10.5148 114.127 10.556C114.142 10.5972 114.147 10.6417 114.14 10.6852C114.113 11.097 114.021 11.5017 113.868 11.884C113.697 12.3084 113.441 12.6919 113.114 13.0096C112.734 13.3742 112.287 13.6602 111.798 13.8517C111.179 14.0883 110.52 14.2011 109.858 14.1839C109.216 14.1998 108.578 14.0869 107.981 13.8517C107.483 13.6489 107.036 13.3364 106.673 12.9369C106.319 12.5361 106.054 12.0638 105.895 11.5515C105.718 10.9823 105.621 10.391 105.606 9.79461C105.585 9.35212 105.575 8.87706 105.574 8.36943C105.574 7.86175 105.585 7.37553 105.606 6.91075C105.622 6.31701 105.719 5.72836 105.895 5.1614C106.052 4.64637 106.318 4.17148 106.673 3.76883C107.036 3.36961 107.483 3.05696 107.981 2.85353C108.578 2.61834 109.216 2.50539 109.858 2.52124C110.52 2.50402 111.179 2.61684 111.798 2.85343C112.287 3.0454 112.734 3.33156 113.114 3.69594C113.441 4.0136 113.698 4.39731 113.868 4.82199C114.021 5.20414 114.113 5.60875 114.14 6.02036C114.147 6.06378 114.142 6.10827 114.127 6.14939C114.112 6.19052 114.086 6.22684 114.052 6.25476C113.983 6.3142 113.894 6.34595 113.803 6.34405H113.482C113.402 6.34565 113.323 6.32004 113.258 6.27127C113.183 6.20201 113.137 6.10655 113.129 6.00428C113.046 5.5799 112.894 5.17212 112.681 4.79697C112.503 4.49478 112.265 4.23289 111.983 4.02768C111.697 3.82805 111.376 3.68766 111.036 3.61469C110.649 3.53099 110.254 3.49027 109.858 3.49323C108.873 3.49323 108.098 3.76856 107.532 4.31923C106.965 4.86976 106.66 5.76065 106.617 6.9919" fill="#272D71"/>
<path d="M122.322 7.26656L127.185 2.92583C127.227 2.89324 127.296 2.84458 127.393 2.78027C127.514 2.70877 127.653 2.67492 127.794 2.68294H128.051C128.093 2.6828 128.135 2.69137 128.173 2.70811C128.212 2.72485 128.246 2.74941 128.275 2.78027C128.306 2.80937 128.33 2.84446 128.347 2.88339C128.363 2.92232 128.372 2.96426 128.372 3.00664C128.373 3.04545 128.367 3.08416 128.353 3.1204C128.339 3.15664 128.318 3.18965 128.291 3.21739L122.852 8.10865L128.629 13.4705C128.673 13.5158 128.703 13.5732 128.715 13.6355C128.727 13.6978 128.72 13.7624 128.696 13.821C128.672 13.8797 128.631 13.9299 128.579 13.9655C128.527 14.0011 128.466 14.0204 128.403 14.021H128.131C127.991 14.029 127.851 13.9953 127.73 13.9241C127.633 13.8594 127.563 13.8107 127.521 13.7781L122.322 8.9833V13.6647C122.322 13.9026 122.199 14.021 121.954 14.021H121.665C121.617 14.028 121.568 14.0236 121.522 14.0082C121.476 13.9927 121.434 13.9667 121.4 13.9321C121.366 13.8975 121.34 13.8554 121.325 13.8089C121.309 13.7625 121.305 13.7131 121.312 13.6647V3.05575C121.312 2.80707 121.43 2.6828 121.665 2.68294H121.954C122.004 2.67577 122.055 2.68049 122.103 2.6967C122.151 2.71292 122.195 2.74019 122.23 2.77637C122.266 2.81254 122.293 2.85662 122.309 2.90511C122.325 2.9536 122.329 3.00518 122.322 3.05575L122.322 7.26656Z" fill="#272D71"/>
<path d="M138.449 2.52046C139.012 2.50924 139.572 2.59982 140.102 2.78792C140.53 2.94135 140.927 3.1719 141.274 3.46837C141.567 3.72242 141.807 4.03373 141.979 4.38366C142.131 4.68591 142.219 5.01708 142.236 5.35565C142.237 5.43831 142.209 5.51867 142.156 5.58203C142.123 5.61672 142.083 5.64349 142.039 5.66034C141.994 5.6772 141.947 5.6837 141.899 5.67937H141.579C141.508 5.67393 141.439 5.65176 141.378 5.61462C141.334 5.58671 141.297 5.54869 141.271 5.50367C141.244 5.45865 141.229 5.40792 141.225 5.35565C141.191 5.08406 141.098 4.82349 140.952 4.5925C140.806 4.36152 140.612 4.16581 140.383 4.01932C139.808 3.64594 139.132 3.46186 138.449 3.49247C138.083 3.48938 137.717 3.52757 137.358 3.60633C137.055 3.66954 136.767 3.79045 136.508 3.96261C136.279 4.11807 136.089 4.32615 135.955 4.56983C135.815 4.83649 135.746 5.13496 135.754 5.43646C135.746 5.72312 135.809 6.00726 135.939 6.26244C136.083 6.51187 136.283 6.72299 136.524 6.87814C136.841 7.08746 137.18 7.26128 137.535 7.39653C137.942 7.55814 138.434 7.73078 139.011 7.91445C139.61 8.10868 140.132 8.30052 140.576 8.48997C140.972 8.65103 141.344 8.86615 141.683 9.12932C141.962 9.34952 142.188 9.63228 142.341 9.95533C142.494 10.313 142.568 10.7 142.557 11.0894C142.578 11.5299 142.49 11.9688 142.303 12.3671C142.115 12.7654 141.833 13.1108 141.482 13.3727C140.765 13.9139 139.781 14.1841 138.53 14.1836C137.943 14.1932 137.358 14.1083 136.797 13.9322C136.338 13.7876 135.907 13.5658 135.521 13.2763C135.191 13.027 134.918 12.7093 134.719 12.3445C134.537 12.0143 134.435 11.6455 134.422 11.268C134.422 11.2254 134.43 11.1833 134.447 11.1442C134.464 11.1051 134.488 11.0699 134.519 11.0407C134.55 11.0089 134.588 10.9839 134.629 10.9673C134.67 10.9506 134.714 10.9426 134.759 10.9439H135.08C135.125 10.9404 135.17 10.9474 135.211 10.9642C135.253 10.981 135.29 11.0072 135.321 11.0407C135.375 11.1067 135.414 11.1845 135.433 11.268C135.471 11.5104 135.552 11.7437 135.674 11.956C135.816 12.2035 136.011 12.4163 136.244 12.5793C136.53 12.7803 136.847 12.9336 137.182 13.0333C137.62 13.1607 138.074 13.2206 138.53 13.211C139.578 13.211 140.343 13.0193 140.824 12.6359C141.058 12.4549 141.245 12.2201 141.371 11.9511C141.497 11.6821 141.557 11.3866 141.546 11.0894C141.556 10.8024 141.484 10.5186 141.338 10.2719C141.172 10.025 140.953 9.81982 140.696 9.67221C140.35 9.46651 139.984 9.29558 139.605 9.16189C139.166 8.99935 138.647 8.8212 138.048 8.62744C137.543 8.47131 137.047 8.28465 136.564 8.06845C136.192 7.90475 135.846 7.68644 135.537 7.42059C135.274 7.19113 135.068 6.90254 134.936 6.57808C134.799 6.21371 134.734 5.826 134.743 5.43641C134.739 5.04009 134.824 4.64799 134.99 4.28914C135.157 3.93029 135.402 3.61389 135.706 3.36337C136.049 3.08599 136.441 2.87706 136.861 2.74774C137.375 2.58848 137.911 2.51178 138.449 2.52046Z" fill="#272D71"/>
<path d="M150.227 0.6875V16.0166" stroke="#AEB5BC" stroke-width="0.766457"/>
<path fill-rule="evenodd" clip-rule="evenodd" d="M157.891 2.79338C157.891 2.58173 158.062 2.41016 158.274 2.41016H163.064C164.652 2.41016 165.938 3.69699 165.938 5.28437C165.938 6.23415 165.478 7.07634 164.768 7.59966C165.585 8.2764 166.13 9.42523 166.13 10.458C166.13 12.0453 164.843 13.907 163.256 13.907H158.274C158.062 13.907 157.891 13.7354 157.891 13.5238V2.79338ZM159.04 12.7573H163.256C164.208 12.7573 164.98 11.4104 164.98 10.458C164.98 9.50552 164.208 8.15858 163.256 8.15858H163.064H159.04V12.7573ZM163.064 7.0089C164.017 7.0089 164.789 6.2368 164.789 5.28437C164.789 4.33194 164.017 3.55984 163.064 3.55984H159.04V7.0089H163.064Z" fill="#0316E1"/>
<path fill-rule="evenodd" clip-rule="evenodd" d="M173.794 2.41016C174.005 2.41016 174.177 2.58173 174.177 2.79338V10.6496C174.177 12.0253 175.292 13.1406 176.668 13.1406H178.201C179.577 13.1406 180.692 12.0253 180.692 10.6496V2.79338C180.692 2.58173 180.863 2.41016 181.075 2.41016H181.458C181.67 2.41016 181.842 2.58173 181.842 2.79338V10.6496C181.842 12.6603 180.212 14.2902 178.201 14.2902H176.668C174.657 14.2902 173.027 12.6603 173.027 10.6496V2.79338C173.027 2.58173 173.199 2.41016 173.411 2.41016H173.794Z" fill="#0316E1"/>
<path fill-rule="evenodd" clip-rule="evenodd" d="M190.052 3.3817H189.114C189.065 3.389 189.014 3.38441 188.965 3.36832C188.917 3.35223 188.873 3.325 188.838 3.28898L188.802 3.24547C188.782 3.21946 188.769 3.19083 188.76 3.16043C188.751 3.1346 188.745 3.10785 188.743 3.0809C188.742 3.05732 188.742 3.03346 188.745 3.00979V2.76691C188.745 2.52898 188.869 2.41006 189.114 2.41016H192.002C192.248 2.41006 192.372 2.52898 192.372 2.76691V3.00979C192.378 3.06041 192.373 3.11196 192.357 3.16043L192.342 3.20103L192.315 3.24547L192.279 3.28898C192.243 3.325 192.2 3.35223 192.152 3.36832C192.102 3.38441 192.052 3.389 192.002 3.3817H191.065V12.7771H192.002C192.052 12.7698 192.102 12.7744 192.152 12.7904C192.2 12.8065 192.243 12.8338 192.279 12.8698C192.296 12.8871 192.312 12.9062 192.326 12.9267L192.345 12.9633L192.357 12.9983C192.373 13.0468 192.378 13.0984 192.372 13.149V13.3919C192.372 13.6298 192.248 13.7487 192.002 13.7486H189.114C188.971 13.7487 188.869 13.7084 188.809 13.6277C188.767 13.5698 188.745 13.4912 188.745 13.3919V13.149C188.739 13.0984 188.743 13.0468 188.76 12.9983L188.769 12.9752C188.773 12.9583 188.782 12.9421 188.791 12.9267L188.82 12.8903L188.838 12.8698C188.873 12.8338 188.917 12.8065 188.965 12.7904C188.99 12.782 189.017 12.7767 189.043 12.7746C189.067 12.7728 189.091 12.7736 189.114 12.7771H190.052V3.3817Z" fill="#0316E1"/>
<path d="M200.283 12.7803H205.819C205.869 12.773 205.92 12.7776 205.968 12.7937C206.016 12.8099 206.06 12.837 206.095 12.8731C206.131 12.9092 206.158 12.9532 206.174 13.0016C206.19 13.0501 206.195 13.1016 206.188 13.1522V13.3951C206.188 13.6331 206.065 13.752 205.819 13.7519H199.626C199.578 13.7588 199.529 13.7544 199.483 13.7389C199.437 13.7234 199.395 13.6973 199.361 13.6627C199.327 13.6281 199.301 13.5859 199.286 13.5394C199.27 13.493 199.266 13.4436 199.273 13.3951V2.77009C199.266 2.72163 199.27 2.67221 199.286 2.62576C199.301 2.57931 199.327 2.53711 199.361 2.50249C199.395 2.46787 199.437 2.44179 199.483 2.42631C199.529 2.41084 199.578 2.4064 199.626 2.41334H199.931C199.979 2.40649 200.028 2.411 200.074 2.42652C200.119 2.44204 200.161 2.46814 200.195 2.50275C200.23 2.53737 200.255 2.57955 200.271 2.62595C200.286 2.67235 200.29 2.7217 200.283 2.77009L200.283 12.7803Z" fill="#0316E1"/>
<path fill-rule="evenodd" clip-rule="evenodd" d="M220.674 4.2095C220.798 4.56293 220.861 4.93551 220.859 5.31056C220.885 7.07618 220.873 8.79757 220.859 10.5425C220.859 10.9494 220.818 11.3531 220.674 11.7333C220.531 12.1145 220.315 12.464 220.04 12.762C219.747 13.0743 219.391 13.32 218.997 13.4826C218.538 13.6686 218.047 13.7594 217.553 13.7496H213.446C213.398 13.7566 213.349 13.7522 213.303 13.7367C213.257 13.7212 213.215 13.6951 213.181 13.6605C213.147 13.6259 213.121 13.5837 213.106 13.5372C213.09 13.4907 213.086 13.4413 213.093 13.3929V2.78394C213.093 2.5357 213.21 2.41113 213.446 2.41113H217.633C218.125 2.4003 218.614 2.48 219.078 2.64634C219.455 2.78498 219.8 3.00289 220.089 3.28572C220.349 3.54577 220.549 3.86139 220.674 4.2095ZM214.103 3.38357H217.425C219.039 3.38357 219.847 4.02591 219.848 5.31059V10.5425C219.857 10.8402 219.805 11.1366 219.694 11.4127C219.584 11.6888 219.417 11.9387 219.206 12.1463C218.778 12.5673 218.163 12.7779 217.361 12.7781H214.103V8.30742V7.33541V3.38357Z" fill="#0316E1"/>
<path fill-rule="evenodd" clip-rule="evenodd" d="M228.923 3.55984H234.672C234.881 3.55984 235.055 3.38769 235.055 3.17661V2.79338C235.055 2.58231 234.881 2.41016 234.672 2.41016H228.157C227.947 2.41016 227.773 2.58231 227.773 2.79338V13.5238C227.773 13.7349 227.947 13.907 228.157 13.907H234.672C234.881 13.907 235.055 13.7349 235.055 13.5238V13.1406C235.055 12.9295 234.881 12.7573 234.672 12.7573H228.923V8.54181H233.139C233.348 8.54181 233.522 8.36966 233.522 8.15858V7.77536C233.522 7.56428 233.348 7.39213 233.139 7.39213H228.923V3.55984Z" fill="#0316E1"/>
<path fill-rule="evenodd" clip-rule="evenodd" d="M247.127 2.41016C248.714 2.41016 250.001 3.69699 250.001 5.28437C250.001 6.23415 249.54 7.07634 248.83 7.59966C248.83 7.59966 248.29 7.99177 247.566 8.11914C247.917 9.07003 249.095 12.1539 249.566 13.3888C249.662 13.6397 249.476 13.907 249.208 13.907H248.893C248.734 13.907 248.591 13.8085 248.534 13.6595L246.451 8.15858H243.103V13.5238C243.103 13.7354 242.931 13.907 242.72 13.907H242.336C242.125 13.907 241.953 13.7354 241.953 13.5238V2.79338C241.953 2.58173 242.125 2.41016 242.336 2.41016H247.127ZM248.851 5.28437C248.851 6.2368 248.079 7.0089 247.127 7.0089H243.103V3.55984H247.127C248.079 3.55984 248.851 4.33194 248.851 5.28437Z" fill="#0316E1"/>
</svg>
