<svg width="269" height="31" viewBox="0 0 269 31" fill="none" xmlns="http://www.w3.org/2000/svg">
<path fill-rule="evenodd" clip-rule="evenodd" d="M110.809 17.2512C110.775 16.3072 110.775 15.3741 110.809 14.4519H110.809C110.853 13.1855 111.17 12.2691 111.759 11.7028C112.347 11.1363 113.153 10.8531 114.176 10.8531C114.588 10.8501 114.999 10.892 115.401 10.9781C115.754 11.0531 116.089 11.1975 116.385 11.4029C116.679 11.614 116.926 11.8834 117.11 12.1942C117.332 12.5801 117.49 12.9995 117.577 13.4361C117.585 13.5413 117.633 13.6394 117.711 13.7107C117.778 13.7609 117.86 13.7872 117.944 13.7856H118.277C118.372 13.7875 118.464 13.7548 118.536 13.6937C118.571 13.665 118.598 13.6276 118.614 13.5853C118.63 13.543 118.635 13.4973 118.627 13.4526C118.6 13.0292 118.504 12.613 118.344 12.2199C118.168 11.7831 117.901 11.3884 117.561 11.0616C117.166 10.6868 116.701 10.3925 116.194 10.195C115.55 9.95165 114.865 9.8356 114.177 9.85332C113.51 9.83701 112.847 9.9532 112.226 10.1951C111.708 10.4044 111.244 10.726 110.867 11.1366C110.498 11.5508 110.222 12.0393 110.058 12.5691C109.876 13.1522 109.775 13.7577 109.758 14.3685C109.736 14.8466 109.725 15.3467 109.725 15.8689C109.725 16.3911 109.736 16.8797 109.758 17.3349C109.773 17.9483 109.874 18.5566 110.058 19.1421C110.223 19.6691 110.499 20.1548 110.867 20.5671C111.244 20.978 111.708 21.2995 112.226 21.5081C112.847 21.75 113.51 21.8662 114.177 21.8498C114.865 21.8675 115.55 21.7515 116.194 21.5081C116.701 21.3111 117.166 21.0169 117.561 20.6419C117.9 20.3151 118.167 19.9206 118.344 19.4841C118.504 19.0908 118.599 18.6745 118.627 18.251C118.635 18.2063 118.63 18.1604 118.614 18.1181C118.598 18.0757 118.571 18.0382 118.536 18.0094C118.464 17.9484 118.372 17.9159 118.277 17.918H117.944C117.86 17.9162 117.778 17.9424 117.711 17.9924C117.633 18.064 117.585 18.1625 117.577 18.268C117.49 18.7042 117.333 19.1234 117.11 19.5089C116.926 19.8198 116.679 20.0892 116.385 20.3003C116.089 20.5058 115.754 20.6502 115.401 20.7251C114.999 20.8116 114.588 20.8535 114.177 20.85C113.153 20.8503 112.348 20.5671 111.759 20.0003C111.17 19.4342 110.853 18.5178 110.809 17.2512ZM72.3493 17.2516C72.2607 16.9642 72.1346 16.6898 71.9742 16.4354C71.8252 16.1992 71.6427 15.9858 71.4323 15.8021C71.237 15.632 71.0215 15.4867 70.7906 15.3695C70.9725 15.2819 71.1432 15.1727 71.299 15.0443C71.4824 14.8936 71.6425 14.7167 71.7743 14.5193C71.9257 14.293 72.0438 14.0462 72.125 13.7864C72.2178 13.4785 72.2626 13.1581 72.2578 12.8366C72.2602 12.4508 72.1954 12.0676 72.0661 11.704C71.9367 11.3459 71.7287 11.0213 71.4576 10.7538C71.1577 10.4629 70.7996 10.2387 70.4068 10.0961C69.9254 9.92502 69.4168 9.84303 68.906 9.85417H64.554C64.309 9.85417 64.187 9.98231 64.187 10.2377V21.1503C64.1798 21.2001 64.1844 21.2509 64.2002 21.2987C64.2161 21.3465 64.2429 21.3899 64.2786 21.4255C64.3142 21.4612 64.3576 21.488 64.4054 21.5039C64.4532 21.5198 64.5041 21.5244 64.554 21.5172H69.0228C69.5364 21.5273 70.0468 21.4339 70.5236 21.2426C70.9335 21.0753 71.303 20.8226 71.6074 20.5013C71.8938 20.1947 72.1177 19.8353 72.2666 19.4432C72.4157 19.0521 72.4918 18.6369 72.4909 18.2183C72.4935 17.8907 72.4458 17.5647 72.3493 17.2516ZM65.237 10.8545H68.6894C70.3672 10.8545 71.2065 11.5152 71.2075 12.8366C71.2248 13.1246 71.1768 13.4127 71.067 13.6796C70.9573 13.9464 70.7886 14.185 70.5736 14.3775C70.1507 14.7394 69.5227 14.9201 68.6895 14.9194H65.237V10.8545ZM70.7736 19.868C70.3291 20.3011 69.6899 20.5177 68.856 20.5179H65.237V15.9192H68.856C69.6903 15.9192 70.3295 16.133 70.7736 16.5604C70.9948 16.7746 71.1685 17.0329 71.2835 17.3185C71.3985 17.6041 71.4521 17.9107 71.441 18.2183C71.4505 18.5245 71.3961 18.8294 71.2812 19.1134C71.1663 19.3974 70.9934 19.6544 70.7736 19.868ZM8.85529 15.6015C9.24966 15.8567 9.56436 16.2175 9.76359 16.6427C9.94682 17.0947 10.0349 17.5796 10.0224 18.0671C10.0227 18.5191 9.95532 18.9685 9.82243 19.4005C9.69096 19.8302 9.46585 20.2254 9.16327 20.5578C8.83157 20.9152 8.42443 21.1943 7.97138 21.3749C7.3973 21.5953 6.78523 21.7 6.17045 21.683H0.45094C0.391771 21.6837 0.333092 21.6722 0.278536 21.6493C0.22398 21.6265 0.174708 21.5926 0.133768 21.5499C0.0910406 21.5091 0.0571309 21.46 0.034128 21.4055C0.0111251 21.3511 -0.000484114 21.2926 1.54648e-05 21.2335V12.6057H3.08201V10.02H5.82019C6.46219 10.003 7.10162 10.1074 7.70479 10.3278C8.16687 10.502 8.58517 10.7753 8.9303 11.1283C9.23059 11.4463 9.45554 11.8277 9.58853 12.2443C9.71958 12.645 9.7872 13.0637 9.78894 13.4852C9.79385 13.7696 9.75746 14.0531 9.68092 14.3271C9.61872 14.5418 9.53188 14.7486 9.42213 14.9434C9.33764 15.0952 9.23379 15.2353 9.11317 15.3604C9.00792 15.4656 8.92195 15.5464 8.85529 15.6015ZM5.66988 12.6025H3.08522V14.502H5.66988C5.8072 14.512 5.94512 14.4943 6.07543 14.4498C6.20573 14.4054 6.32575 14.3352 6.42832 14.2435C6.51619 14.1519 6.58445 14.0433 6.62894 13.9245C6.67343 13.8057 6.69322 13.679 6.68709 13.5523C6.69318 13.4255 6.67338 13.2988 6.62889 13.1799C6.58441 13.061 6.51617 12.9523 6.42832 12.8606C6.3256 12.7691 6.20555 12.6991 6.07528 12.6548C5.945 12.6105 5.80715 12.5927 5.66988 12.6025ZM6.26631 19.0354C6.40373 18.9853 6.52976 18.9083 6.63701 18.8089V18.809C6.82921 18.6167 6.93716 18.3561 6.93716 18.0843C6.93716 17.8125 6.82921 17.5519 6.63701 17.3596C6.52973 17.2603 6.40368 17.1834 6.26626 17.1334C6.12883 17.0834 5.9828 17.0613 5.83672 17.0684H3.08522V19.1006H5.83672C5.98283 19.1076 6.12888 19.0855 6.26631 19.0354ZM25.5468 19.1508C25.4626 19.0667 25.349 19.0188 25.2301 19.0172H19.961V17.1511H24.7299C24.849 17.1498 24.9627 17.102 25.047 17.018C25.1312 16.934 25.1793 16.8205 25.1809 16.7015V14.9357C25.1794 14.8166 25.1314 14.7029 25.0471 14.6188C24.9629 14.5346 24.8491 14.4866 24.7299 14.4851H19.961V12.6857H25.0973C25.2162 12.6846 25.3299 12.6369 25.414 12.5529C25.498 12.469 25.5457 12.3553 25.5468 12.2366V10.4698C25.5474 10.4107 25.5359 10.3521 25.5131 10.2976C25.4902 10.2432 25.4565 10.1939 25.414 10.1529C25.373 10.1104 25.3238 10.0767 25.2693 10.0539C25.2149 10.0311 25.1563 10.0196 25.0973 10.0201H17.3263C17.2673 10.0195 17.2087 10.0309 17.1542 10.0537C17.0997 10.0765 17.0505 10.1103 17.0096 10.1529C16.9669 10.1938 16.933 10.243 16.91 10.2975C16.887 10.352 16.8754 10.4106 16.8759 10.4698V21.2336C16.8774 21.3524 16.9253 21.4659 17.0095 21.5499C17.0937 21.6338 17.2074 21.6815 17.3263 21.6827H25.2301C25.349 21.6815 25.4627 21.6338 25.5469 21.5499C25.6311 21.4659 25.6791 21.3524 25.6805 21.2336V19.4672C25.6789 19.3484 25.6309 19.2349 25.5468 19.1508ZM41.1724 10.0201C41.2314 10.0195 41.29 10.031 41.3445 10.0538C41.3989 10.0766 41.4481 10.1103 41.4891 10.1529C41.5317 10.1939 41.5654 10.2431 41.5883 10.2976C41.6113 10.3521 41.6228 10.4107 41.6223 10.4697V12.2366C41.6211 12.3554 41.5733 12.4689 41.4891 12.5529C41.405 12.6369 41.2913 12.6846 41.1724 12.6857H38.237V21.2336C38.2356 21.3524 38.1878 21.4659 38.1037 21.5499C38.0196 21.6339 37.906 21.6817 37.7871 21.6831H35.6023C35.4834 21.6818 35.3697 21.6341 35.2857 21.55C35.2016 21.466 35.1539 21.3524 35.1527 21.2336V12.6857H32.2169C32.098 12.6846 31.9843 12.637 31.9002 12.553C31.8161 12.469 31.7684 12.3554 31.7674 12.2366V10.4697C31.7668 10.4107 31.7783 10.3521 31.8011 10.2976C31.824 10.2432 31.8577 10.1939 31.9002 10.1529C31.9412 10.1104 31.9904 10.0768 32.0449 10.0539C32.0993 10.0311 32.1578 10.0196 32.2169 10.0201H41.1724ZM53.8788 10.5699L57.5142 21.0664C57.5503 21.1453 57.5728 21.2298 57.5807 21.3162C57.5799 21.4133 57.5409 21.5062 57.4722 21.5748C57.4035 21.6434 57.3106 21.6824 57.2134 21.6832H55.1128C54.9417 21.6999 54.771 21.649 54.6371 21.5414C54.5554 21.4671 54.4949 21.3725 54.4619 21.2672L53.9954 19.8834H49.5601L49.0928 21.2672C49.06 21.3726 48.9995 21.4672 48.9176 21.5414C48.7839 21.649 48.6132 21.6999 48.4423 21.6832H46.3413C46.2442 21.682 46.1515 21.6429 46.0829 21.5743C46.0143 21.5058 45.9752 21.4132 45.974 21.3162C45.9819 21.2297 46.0046 21.1452 46.0411 21.0664L49.6765 10.5699C49.731 10.4323 49.8133 10.3074 49.9183 10.203C49.9858 10.1389 50.0659 10.0895 50.1535 10.0581C50.2411 10.0266 50.3343 10.0137 50.4272 10.0202H53.1286C53.2214 10.0138 53.3146 10.0268 53.4022 10.0582C53.4898 10.0897 53.5699 10.139 53.6374 10.203C53.742 10.3076 53.8241 10.4325 53.8788 10.5699ZM51.7777 13.3025L50.4272 17.3013H53.1286L51.7777 13.3025ZM87.0292 20.6838H81.2761L81.2761 10.387C81.2833 10.3372 81.2787 10.2865 81.2629 10.2388C81.247 10.191 81.2203 10.1476 81.1847 10.112C81.1492 10.0764 81.1058 10.0496 81.0581 10.0336C81.0104 10.0177 80.9596 10.013 80.9097 10.0201H80.593C80.5431 10.0129 80.4923 10.0175 80.4445 10.0334C80.3966 10.0493 80.3532 10.0761 80.3175 10.1118C80.2819 10.1474 80.2551 10.1908 80.2391 10.2386C80.2232 10.2863 80.2186 10.3372 80.2258 10.387V21.3162C80.2186 21.366 80.2232 21.4169 80.2391 21.4646C80.2551 21.5124 80.2819 21.5558 80.3175 21.5914C80.3532 21.6271 80.3966 21.6539 80.4445 21.6698C80.4923 21.6857 80.5431 21.6903 80.593 21.6831H87.0291C87.2849 21.6833 87.4129 21.5609 87.4129 21.3162V21.0663C87.4203 21.0143 87.4154 20.9613 87.3987 20.9114C87.382 20.8616 87.354 20.8163 87.3167 20.7792C87.2795 20.7421 87.2341 20.7142 87.1842 20.6976C87.1343 20.681 87.0812 20.6763 87.0292 20.6838ZM102.538 14.4518C102.532 13.7618 102.411 13.0776 102.18 12.4273C101.985 11.8909 101.678 11.4023 101.279 10.9945C100.891 10.6086 100.421 10.3155 99.9035 10.137C98.7527 9.75856 97.5108 9.75856 96.36 10.137C95.8457 10.3167 95.3785 10.6098 94.993 10.9945C94.5939 11.4023 94.2868 11.8909 94.0925 12.4274C93.8612 13.0776 93.7399 13.7618 93.7335 14.4518C93.711 14.9524 93.6998 15.4192 93.7 15.8521C93.7 16.2847 93.7112 16.751 93.7335 17.2509C93.7777 18.828 94.1751 19.9887 94.9259 20.7331C95.6761 21.4775 96.7461 21.8498 98.1361 21.85C99.5142 21.85 100.581 21.4777 101.338 20.7331C102.093 19.9895 102.494 18.8288 102.538 17.2509C102.561 16.7517 102.572 16.2854 102.572 15.8521C102.572 15.4188 102.56 14.952 102.538 14.4518ZM101.504 15.8521V16.4762C101.504 16.693 101.499 16.9235 101.488 17.1678C101.481 17.738 101.382 18.3034 101.196 18.8423C101.046 19.268 100.807 19.657 100.495 19.9836C100.204 20.2815 99.8472 20.507 99.453 20.6417C98.5967 20.9192 97.6746 20.9192 96.8183 20.6417C96.4242 20.507 96.0672 20.2815 95.7763 19.9836C95.465 19.6567 95.2263 19.2678 95.0757 18.8423C94.8891 18.3035 94.7907 17.738 94.7843 17.1678C94.7724 16.9234 94.7646 16.693 94.7586 16.4762C94.7535 16.2599 94.7507 16.0514 94.7507 15.8521C94.7507 15.6513 94.7534 15.4457 94.7586 15.2353C94.7646 15.024 94.7724 14.7907 94.7843 14.5353C94.7923 13.9679 94.8906 13.4052 95.0757 12.8687C95.2254 12.4384 95.4675 12.046 95.785 11.7192C96.08 11.4224 96.4394 11.1974 96.8353 11.0615C97.6801 10.7835 98.5918 10.7835 99.4366 11.0615C99.8326 11.1974 100.192 11.4224 100.487 11.7192C100.804 12.0462 101.046 12.4386 101.196 12.8687C101.381 13.4053 101.479 13.9679 101.488 14.5354C101.499 14.7907 101.505 15.024 101.505 15.2353L101.504 15.8521ZM127.133 14.7352L132.187 10.2703C132.231 10.2367 132.303 10.1867 132.403 10.1205C132.529 10.047 132.674 10.0122 132.82 10.0204H133.087C133.131 10.0203 133.174 10.0291 133.214 10.0463C133.254 10.0635 133.29 10.0888 133.32 10.1205C133.352 10.1505 133.377 10.1866 133.395 10.2266C133.412 10.2667 133.421 10.3098 133.421 10.3534C133.422 10.3933 133.416 10.4331 133.401 10.4704C133.387 10.5077 133.365 10.5416 133.337 10.5702L127.684 15.6014L133.688 21.1168C133.733 21.1634 133.764 21.2224 133.777 21.2865C133.789 21.3506 133.783 21.417 133.758 21.4773C133.733 21.5377 133.691 21.5894 133.636 21.6259C133.582 21.6625 133.519 21.6824 133.453 21.683H133.17C133.024 21.6912 132.88 21.6565 132.754 21.5834C132.653 21.5168 132.58 21.4667 132.536 21.4332L127.133 16.5011V21.3165C127.133 21.5613 127.006 21.683 126.751 21.683H126.45C126.4 21.6902 126.35 21.6857 126.302 21.6698C126.254 21.6539 126.211 21.6272 126.175 21.5916C126.139 21.556 126.112 21.5126 126.096 21.4649C126.081 21.4171 126.076 21.3663 126.083 21.3165V10.4039C126.083 10.1481 126.205 10.0203 126.45 10.0204H126.75C126.803 10.0131 126.856 10.0179 126.906 10.0346C126.955 10.0513 127.001 10.0793 127.038 10.1165C127.075 10.1537 127.103 10.1991 127.12 10.249C127.136 10.2988 127.141 10.3519 127.133 10.4039L127.133 14.7352ZM145.612 10.1284C145.06 9.93488 144.478 9.84171 143.893 9.85325C143.334 9.84433 142.777 9.92322 142.243 10.087C141.806 10.2201 141.398 10.435 141.042 10.7203C140.726 10.978 140.472 11.3034 140.298 11.6726C140.125 12.0417 140.037 12.445 140.041 12.8527C140.032 13.2534 140.1 13.6522 140.242 14.027C140.38 14.3608 140.594 14.6576 140.867 14.8936C141.188 15.1671 141.547 15.3917 141.934 15.56C142.436 15.7824 142.951 15.9744 143.477 16.135C144.099 16.3343 144.638 16.5176 145.095 16.6848C145.489 16.8223 145.869 16.9981 146.228 17.2097C146.495 17.3615 146.724 17.5726 146.896 17.8265C147.047 18.0803 147.122 18.3722 147.112 18.6674C147.123 18.9732 147.061 19.2771 146.93 19.5538C146.799 19.8305 146.605 20.0721 146.362 20.2583C145.861 20.6526 145.066 20.8498 143.977 20.8498C143.504 20.8596 143.031 20.798 142.576 20.667C142.228 20.5644 141.899 20.4067 141.601 20.2C141.359 20.0323 141.157 19.8134 141.009 19.5589C140.882 19.3405 140.798 19.1005 140.759 18.8512C140.738 18.7653 140.698 18.6853 140.642 18.6174C140.61 18.5829 140.572 18.5559 140.528 18.5387C140.485 18.5214 140.438 18.5142 140.392 18.5178H140.058C140.012 18.5165 139.966 18.5247 139.923 18.5418C139.88 18.559 139.841 18.5847 139.808 18.6174C139.776 18.6474 139.751 18.6836 139.734 18.7238C139.716 18.764 139.707 18.8074 139.708 18.8512C139.722 19.2394 139.828 19.6189 140.017 19.9585C140.223 20.3337 140.507 20.6605 140.85 20.917C141.251 21.2148 141.699 21.4429 142.176 21.5916C142.759 21.7728 143.367 21.8601 143.977 21.8502C145.278 21.8508 146.301 21.5728 147.045 21.0162C147.411 20.7467 147.704 20.3914 147.899 19.9817C148.093 19.572 148.184 19.1206 148.163 18.6675C148.174 18.2669 148.097 17.8688 147.938 17.5009C147.779 17.1686 147.545 16.8778 147.254 16.6513C146.902 16.3806 146.515 16.1593 146.103 15.9936C145.642 15.7988 145.1 15.6014 144.478 15.4016C143.877 15.2127 143.366 15.0351 142.943 14.8689C142.575 14.7298 142.222 14.551 141.893 14.3357C141.642 14.1761 141.434 13.9589 141.284 13.7023C141.15 13.4399 141.084 13.1476 141.092 12.8527C141.084 12.5426 141.156 12.2356 141.301 11.9613C141.441 11.7106 141.638 11.4966 141.876 11.3367C142.145 11.1596 142.444 11.0352 142.759 10.9702C143.132 10.8892 143.512 10.8499 143.893 10.8531C144.603 10.8216 145.305 11.0109 145.903 11.395C146.141 11.5457 146.343 11.747 146.494 11.9846C146.646 12.2222 146.743 12.4902 146.779 12.7696C146.782 12.8234 146.798 12.8755 146.826 12.9219C146.853 12.9682 146.892 13.0073 146.937 13.036C147.001 13.0742 147.072 13.097 147.146 13.1026H147.479C147.528 13.107 147.578 13.1003 147.624 13.083C147.67 13.0657 147.712 13.0381 147.746 13.0025C147.801 12.9373 147.83 12.8546 147.829 12.7696C147.811 12.4213 147.72 12.0807 147.562 11.7698C147.384 11.4098 147.134 11.0896 146.829 10.8283C146.469 10.5233 146.056 10.2862 145.612 10.1284Z" fill="#222529"/>
<path d="M155.659 10.1206H156.632V23.2946H155.659V10.1206ZM164.317 12.3886C164.275 12.4586 164.229 12.5122 164.177 12.5496C164.131 12.5822 164.072 12.5986 164.002 12.5986C163.923 12.5986 163.83 12.5589 163.722 12.4796C163.615 12.4002 163.48 12.3139 163.316 12.2206C163.158 12.1226 162.964 12.0339 162.735 11.9546C162.511 11.8752 162.238 11.8356 161.916 11.8356C161.613 11.8356 161.345 11.8776 161.111 11.9616C160.883 12.0409 160.689 12.1506 160.53 12.2906C160.376 12.4306 160.26 12.5962 160.18 12.7876C160.101 12.9742 160.061 13.1772 160.061 13.3966C160.061 13.6766 160.129 13.9099 160.264 14.0966C160.404 14.2786 160.586 14.4349 160.81 14.5656C161.039 14.6962 161.296 14.8106 161.58 14.9086C161.87 15.0019 162.164 15.0999 162.462 15.2026C162.766 15.3052 163.06 15.4219 163.344 15.5526C163.634 15.6786 163.89 15.8396 164.114 16.0356C164.343 16.2316 164.525 16.4719 164.66 16.7566C164.8 17.0412 164.87 17.3912 164.87 17.8066C164.87 18.2452 164.796 18.6582 164.646 19.0456C164.497 19.4282 164.278 19.7619 163.988 20.0466C163.704 20.3312 163.351 20.5552 162.931 20.7186C162.516 20.8819 162.042 20.9636 161.51 20.9636C160.857 20.9636 160.264 20.8469 159.732 20.6136C159.2 20.3756 158.745 20.0559 158.367 19.6546L158.759 19.0106C158.797 18.9592 158.841 18.9172 158.892 18.8846C158.948 18.8472 159.009 18.8286 159.074 18.8286C159.135 18.8286 159.203 18.8542 159.277 18.9056C159.357 18.9522 159.445 19.0129 159.543 19.0876C159.641 19.1622 159.753 19.2439 159.879 19.3326C160.005 19.4212 160.148 19.5029 160.306 19.5776C160.47 19.6522 160.654 19.7152 160.859 19.7666C161.065 19.8132 161.296 19.8366 161.552 19.8366C161.874 19.8366 162.161 19.7922 162.413 19.7036C162.665 19.6149 162.878 19.4912 163.05 19.3326C163.228 19.1692 163.363 18.9756 163.456 18.7516C163.55 18.5276 163.596 18.2779 163.596 18.0026C163.596 17.6992 163.526 17.4519 163.386 17.2606C163.251 17.0646 163.071 16.9012 162.847 16.7706C162.623 16.6399 162.367 16.5302 162.077 16.4416C161.788 16.3482 161.494 16.2549 161.195 16.1616C160.897 16.0636 160.603 15.9516 160.313 15.8256C160.024 15.6996 159.767 15.5362 159.543 15.3356C159.319 15.1349 159.137 14.8852 158.997 14.5866C158.862 14.2832 158.794 13.9099 158.794 13.4666C158.794 13.1119 158.862 12.7689 158.997 12.4376C159.137 12.1062 159.338 11.8122 159.599 11.5556C159.865 11.2989 160.19 11.0936 160.572 10.9396C160.96 10.7856 161.403 10.7086 161.902 10.7086C162.462 10.7086 162.971 10.7972 163.428 10.9746C163.89 11.1519 164.296 11.4086 164.646 11.7446L164.317 12.3886ZM168.356 20.9636C167.796 20.9636 167.365 20.8072 167.061 20.4946C166.763 20.1819 166.613 19.7316 166.613 19.1436V14.8036H165.759C165.685 14.8036 165.622 14.7826 165.57 14.7406C165.519 14.6939 165.493 14.6239 165.493 14.5306V14.0336L166.655 13.8866L166.942 11.6956C166.956 11.6256 166.987 11.5696 167.033 11.5276C167.085 11.4809 167.15 11.4576 167.229 11.4576H167.859V13.9006H169.91V14.8036H167.859V19.0596C167.859 19.3582 167.932 19.5799 168.076 19.7246C168.221 19.8692 168.408 19.9416 168.636 19.9416C168.767 19.9416 168.879 19.9252 168.972 19.8926C169.07 19.8552 169.154 19.8156 169.224 19.7736C169.294 19.7316 169.353 19.6942 169.399 19.6616C169.451 19.6242 169.495 19.6056 169.532 19.6056C169.598 19.6056 169.656 19.6452 169.707 19.7246L170.071 20.3196C169.857 20.5202 169.598 20.6789 169.294 20.7956C168.991 20.9076 168.678 20.9636 168.356 20.9636ZM174.145 13.6486C174.663 13.6486 175.13 13.7349 175.545 13.9076C175.96 14.0802 176.315 14.3252 176.609 14.6426C176.903 14.9599 177.127 15.3449 177.281 15.7976C177.44 16.2456 177.519 16.7472 177.519 17.3026C177.519 17.8626 177.44 18.3666 177.281 18.8146C177.127 19.2626 176.903 19.6452 176.609 19.9626C176.315 20.2799 175.96 20.5249 175.545 20.6976C175.13 20.8656 174.663 20.9496 174.145 20.9496C173.622 20.9496 173.151 20.8656 172.731 20.6976C172.316 20.5249 171.961 20.2799 171.667 19.9626C171.373 19.6452 171.147 19.2626 170.988 18.8146C170.834 18.3666 170.757 17.8626 170.757 17.3026C170.757 16.7472 170.834 16.2456 170.988 15.7976C171.147 15.3449 171.373 14.9599 171.667 14.6426C171.961 14.3252 172.316 14.0802 172.731 13.9076C173.151 13.7349 173.622 13.6486 174.145 13.6486ZM174.145 19.9766C174.845 19.9766 175.368 19.7432 175.713 19.2766C176.058 18.8052 176.231 18.1496 176.231 17.3096C176.231 16.4649 176.058 15.8069 175.713 15.3356C175.368 14.8642 174.845 14.6286 174.145 14.6286C173.79 14.6286 173.48 14.6892 173.214 14.8106C172.953 14.9319 172.733 15.1069 172.556 15.3356C172.383 15.5642 172.253 15.8466 172.164 16.1826C172.08 16.5139 172.038 16.8896 172.038 17.3096C172.038 18.1496 172.211 18.8052 172.556 19.2766C172.906 19.7432 173.436 19.9766 174.145 19.9766ZM180.282 15.1816C180.506 14.6962 180.782 14.3182 181.108 14.0476C181.435 13.7722 181.834 13.6346 182.305 13.6346C182.455 13.6346 182.597 13.6509 182.732 13.6836C182.872 13.7162 182.996 13.7676 183.103 13.8376L183.012 14.7686C182.984 14.8852 182.914 14.9436 182.802 14.9436C182.737 14.9436 182.641 14.9296 182.515 14.9016C182.389 14.8736 182.247 14.8596 182.088 14.8596C181.864 14.8596 181.664 14.8922 181.486 14.9576C181.314 15.0229 181.157 15.1209 181.017 15.2516C180.882 15.3776 180.758 15.5362 180.646 15.7276C180.539 15.9142 180.441 16.1289 180.352 16.3716V20.8516H179.099V13.7606H179.813C179.949 13.7606 180.042 13.7862 180.093 13.8376C180.145 13.8889 180.18 13.9776 180.198 14.1036L180.282 15.1816ZM188.658 16.5326C188.658 16.2432 188.616 15.9796 188.532 15.7416C188.452 15.4989 188.333 15.2912 188.175 15.1186C188.021 14.9412 187.832 14.8059 187.608 14.7126C187.384 14.6146 187.129 14.5656 186.845 14.5656C186.247 14.5656 185.774 14.7406 185.424 15.0906C185.078 15.4359 184.864 15.9166 184.78 16.5326H188.658ZM189.666 19.8576C189.512 20.0442 189.327 20.2076 189.113 20.3476C188.898 20.4829 188.667 20.5949 188.42 20.6836C188.177 20.7722 187.925 20.8376 187.664 20.8796C187.402 20.9262 187.143 20.9496 186.887 20.9496C186.397 20.9496 185.944 20.8679 185.529 20.7046C185.118 20.5366 184.761 20.2939 184.458 19.9766C184.159 19.6546 183.926 19.2579 183.758 18.7866C183.59 18.3152 183.506 17.7739 183.506 17.1626C183.506 16.6679 183.58 16.2059 183.73 15.7766C183.884 15.3472 184.103 14.9762 184.388 14.6636C184.672 14.3462 185.02 14.0989 185.431 13.9216C185.841 13.7396 186.303 13.6486 186.817 13.6486C187.241 13.6486 187.633 13.7209 187.993 13.8656C188.357 14.0056 188.669 14.2109 188.931 14.4816C189.197 14.7476 189.404 15.0789 189.554 15.4756C189.703 15.8676 189.778 16.3156 189.778 16.8196C189.778 17.0156 189.757 17.1462 189.715 17.2116C189.673 17.2769 189.593 17.3096 189.477 17.3096H184.738C184.752 17.7576 184.812 18.1472 184.92 18.4786C185.032 18.8099 185.186 19.0876 185.382 19.3116C185.578 19.5309 185.811 19.6966 186.082 19.8086C186.352 19.9159 186.656 19.9696 186.992 19.9696C187.304 19.9696 187.573 19.9346 187.797 19.8646C188.025 19.7899 188.221 19.7106 188.385 19.6266C188.548 19.5426 188.683 19.4656 188.791 19.3956C188.903 19.3209 188.998 19.2836 189.078 19.2836C189.18 19.2836 189.26 19.3232 189.316 19.4026L189.666 19.8576ZM191.702 20.8516V14.8246L190.918 14.7336C190.82 14.7102 190.738 14.6752 190.673 14.6286C190.612 14.5772 190.582 14.5049 190.582 14.4116V13.9006H191.702V13.2146C191.702 12.8086 191.758 12.4492 191.87 12.1366C191.987 11.8192 192.15 11.5532 192.36 11.3386C192.575 11.1192 192.831 10.9536 193.13 10.8416C193.429 10.7296 193.765 10.6736 194.138 10.6736C194.455 10.6736 194.747 10.7202 195.013 10.8136L194.985 11.4366C194.976 11.5486 194.913 11.6092 194.796 11.6186C194.684 11.6279 194.532 11.6326 194.341 11.6326C194.126 11.6326 193.93 11.6606 193.753 11.7166C193.58 11.7726 193.431 11.8636 193.305 11.9896C193.179 12.1156 193.081 12.2812 193.011 12.4866C192.946 12.6919 192.913 12.9462 192.913 13.2496V13.9006H194.957V14.8036H192.955V20.8516H191.702ZM197.331 15.1816C197.555 14.6962 197.83 14.3182 198.157 14.0476C198.484 13.7722 198.883 13.6346 199.354 13.6346C199.503 13.6346 199.646 13.6509 199.781 13.6836C199.921 13.7162 200.045 13.7676 200.152 13.8376L200.061 14.7686C200.033 14.8852 199.963 14.9436 199.851 14.9436C199.786 14.9436 199.69 14.9296 199.564 14.9016C199.438 14.8736 199.296 14.8596 199.137 14.8596C198.913 14.8596 198.712 14.8922 198.535 14.9576C198.362 15.0229 198.206 15.1209 198.066 15.2516C197.931 15.3776 197.807 15.5362 197.695 15.7276C197.588 15.9142 197.49 16.1289 197.401 16.3716V20.8516H196.148V13.7606H196.862C196.997 13.7606 197.091 13.7862 197.142 13.8376C197.193 13.8889 197.228 13.9776 197.247 14.1036L197.331 15.1816ZM203.95 13.6486C204.468 13.6486 204.934 13.7349 205.35 13.9076C205.765 14.0802 206.12 14.3252 206.414 14.6426C206.708 14.9599 206.932 15.3449 207.086 15.7976C207.244 16.2456 207.324 16.7472 207.324 17.3026C207.324 17.8626 207.244 18.3666 207.086 18.8146C206.932 19.2626 206.708 19.6452 206.414 19.9626C206.12 20.2799 205.765 20.5249 205.35 20.6976C204.934 20.8656 204.468 20.9496 203.95 20.9496C203.427 20.9496 202.956 20.8656 202.536 20.6976C202.12 20.5249 201.766 20.2799 201.472 19.9626C201.178 19.6452 200.951 19.2626 200.793 18.8146C200.639 18.3666 200.562 17.8626 200.562 17.3026C200.562 16.7472 200.639 16.2456 200.793 15.7976C200.951 15.3449 201.178 14.9599 201.472 14.6426C201.766 14.3252 202.12 14.0802 202.536 13.9076C202.956 13.7349 203.427 13.6486 203.95 13.6486ZM203.95 19.9766C204.65 19.9766 205.172 19.7432 205.518 19.2766C205.863 18.8052 206.036 18.1496 206.036 17.3096C206.036 16.4649 205.863 15.8069 205.518 15.3356C205.172 14.8642 204.65 14.6286 203.95 14.6286C203.595 14.6286 203.285 14.6892 203.019 14.8106C202.757 14.9319 202.538 15.1069 202.361 15.3356C202.188 15.5642 202.057 15.8466 201.969 16.1826C201.885 16.5139 201.843 16.8896 201.843 17.3096C201.843 18.1496 202.015 18.8052 202.361 19.2766C202.711 19.7432 203.24 19.9766 203.95 19.9766ZM210.08 14.7896C210.234 14.6169 210.397 14.4606 210.57 14.3206C210.743 14.1806 210.925 14.0616 211.116 13.9636C211.312 13.8609 211.517 13.7839 211.732 13.7326C211.951 13.6766 212.187 13.6486 212.439 13.6486C212.826 13.6486 213.167 13.7139 213.461 13.8446C213.76 13.9706 214.007 14.1526 214.203 14.3906C214.404 14.6239 214.555 14.9062 214.658 15.2376C214.761 15.5689 214.812 15.9352 214.812 16.3366V20.8516H213.559V16.3366C213.559 15.7999 213.435 15.3846 213.188 15.0906C212.945 14.7919 212.574 14.6426 212.075 14.6426C211.706 14.6426 211.361 14.7312 211.039 14.9086C210.722 15.0859 210.428 15.3262 210.157 15.6296V20.8516H208.904V13.7606H209.653C209.83 13.7606 209.94 13.8469 209.982 14.0196L210.08 14.7896ZM218.792 20.9636C218.232 20.9636 217.8 20.8072 217.497 20.4946C217.198 20.1819 217.049 19.7316 217.049 19.1436V14.8036H216.195C216.12 14.8036 216.057 14.7826 216.006 14.7406C215.955 14.6939 215.929 14.6239 215.929 14.5306V14.0336L217.091 13.8866L217.378 11.6956C217.392 11.6256 217.422 11.5696 217.469 11.5276C217.52 11.4809 217.586 11.4576 217.665 11.4576H218.295V13.9006H220.346V14.8036H218.295V19.0596C218.295 19.3582 218.367 19.5799 218.512 19.7246C218.657 19.8692 218.843 19.9416 219.072 19.9416C219.203 19.9416 219.315 19.9252 219.408 19.8926C219.506 19.8552 219.59 19.8156 219.66 19.7736C219.73 19.7316 219.788 19.6942 219.835 19.6616C219.886 19.6242 219.931 19.6056 219.968 19.6056C220.033 19.6056 220.092 19.6452 220.143 19.7246L220.507 20.3196C220.292 20.5202 220.033 20.6789 219.73 20.7956C219.427 20.9076 219.114 20.9636 218.792 20.9636ZM229.03 19.7736C229.417 19.7736 229.751 19.7292 230.031 19.6406C230.311 19.5519 230.539 19.4282 230.717 19.2696C230.899 19.1062 231.032 18.9149 231.116 18.6956C231.2 18.4716 231.242 18.2266 231.242 17.9606C231.242 17.4426 231.057 17.0342 230.689 16.7356C230.32 16.4322 229.767 16.2806 229.03 16.2806H226.86V19.7736H229.03ZM226.86 11.8916V15.3146H228.652C229.034 15.3146 229.366 15.2726 229.646 15.1886C229.93 15.1046 230.164 14.9879 230.346 14.8386C230.532 14.6892 230.67 14.5096 230.759 14.2996C230.847 14.0849 230.892 13.8516 230.892 13.5996C230.892 13.0069 230.714 12.5752 230.36 12.3046C230.005 12.0292 229.454 11.8916 228.708 11.8916H226.86ZM228.708 10.8206C229.324 10.8206 229.853 10.8812 230.297 11.0026C230.745 11.1239 231.111 11.2966 231.396 11.5206C231.685 11.7446 231.897 12.0199 232.033 12.3466C232.168 12.6686 232.236 13.0326 232.236 13.4386C232.236 13.6859 232.196 13.9239 232.117 14.1526C232.042 14.3766 231.928 14.5866 231.774 14.7826C231.62 14.9786 231.424 15.1559 231.186 15.3146C230.952 15.4686 230.677 15.5946 230.36 15.6926C231.097 15.8326 231.65 16.0962 232.019 16.4836C232.392 16.8662 232.579 17.3702 232.579 17.9956C232.579 18.4202 232.499 18.8076 232.341 19.1576C232.187 19.5076 231.958 19.8086 231.655 20.0606C231.356 20.3126 230.987 20.5086 230.549 20.6486C230.11 20.7839 229.611 20.8516 229.051 20.8516H225.509V10.8206H228.708ZM239.946 13.7606V20.8516H239.204C239.027 20.8516 238.915 20.7652 238.868 20.5926L238.77 19.8296C238.462 20.1702 238.117 20.4456 237.734 20.6556C237.351 20.8609 236.913 20.9636 236.418 20.9636C236.031 20.9636 235.688 20.9006 235.389 20.7746C235.095 20.6439 234.848 20.4619 234.647 20.2286C234.446 19.9952 234.295 19.7129 234.192 19.3816C234.094 19.0502 234.045 18.6839 234.045 18.2826V13.7606H235.291V18.2826C235.291 18.8192 235.412 19.2346 235.655 19.5286C235.902 19.8226 236.278 19.9696 236.782 19.9696C237.151 19.9696 237.494 19.8832 237.811 19.7106C238.133 19.5332 238.429 19.2906 238.7 18.9826V13.7606H239.946ZM243.238 13.7606V20.8516H241.992V13.7606H243.238ZM243.504 11.5346C243.504 11.6559 243.478 11.7702 243.427 11.8776C243.38 11.9802 243.315 12.0736 243.231 12.1576C243.151 12.2369 243.056 12.2999 242.944 12.3466C242.836 12.3932 242.722 12.4166 242.601 12.4166C242.479 12.4166 242.365 12.3932 242.258 12.3466C242.155 12.2999 242.064 12.2369 241.985 12.1576C241.905 12.0736 241.842 11.9802 241.796 11.8776C241.749 11.7702 241.726 11.6559 241.726 11.5346C241.726 11.4132 241.749 11.2989 241.796 11.1916C241.842 11.0796 241.905 10.9839 241.985 10.9046C242.064 10.8206 242.155 10.7552 242.258 10.7086C242.365 10.6619 242.479 10.6386 242.601 10.6386C242.722 10.6386 242.836 10.6619 242.944 10.7086C243.056 10.7552 243.151 10.8206 243.231 10.9046C243.315 10.9839 243.38 11.0796 243.427 11.1916C243.478 11.2989 243.504 11.4132 243.504 11.5346ZM246.573 10.5406V20.8516H245.327V10.5406H246.573ZM253.213 15.4476C252.98 15.1349 252.728 14.9179 252.457 14.7966C252.187 14.6706 251.883 14.6076 251.547 14.6076C250.889 14.6076 250.383 14.8432 250.028 15.3146C249.674 15.7859 249.496 16.4579 249.496 17.3306C249.496 17.7926 249.536 18.1892 249.615 18.5206C249.695 18.8472 249.811 19.1179 249.965 19.3326C250.119 19.5426 250.308 19.6966 250.532 19.7946C250.756 19.8926 251.011 19.9416 251.295 19.9416C251.706 19.9416 252.063 19.8482 252.366 19.6616C252.674 19.4749 252.957 19.2112 253.213 18.8706V15.4476ZM254.459 10.5406V20.8516H253.717C253.54 20.8516 253.428 20.7652 253.381 20.5926L253.269 19.7316C252.966 20.0956 252.621 20.3896 252.233 20.6136C251.846 20.8376 251.398 20.9496 250.889 20.9496C250.483 20.9496 250.115 20.8726 249.783 20.7186C249.452 20.5599 249.17 20.3289 248.936 20.0256C248.703 19.7222 248.523 19.3442 248.397 18.8916C248.271 18.4389 248.208 17.9186 248.208 17.3306C248.208 16.8079 248.278 16.3226 248.418 15.8746C248.558 15.4219 248.759 15.0299 249.02 14.6986C249.282 14.3672 249.601 14.1082 249.979 13.9216C250.362 13.7302 250.791 13.6346 251.267 13.6346C251.701 13.6346 252.072 13.7092 252.38 13.8586C252.693 14.0032 252.971 14.2062 253.213 14.4676V10.5406H254.459ZM261.173 16.5326C261.173 16.2432 261.131 15.9796 261.047 15.7416C260.968 15.4989 260.849 15.2912 260.69 15.1186C260.536 14.9412 260.347 14.8059 260.123 14.7126C259.899 14.6146 259.645 14.5656 259.36 14.5656C258.763 14.5656 258.289 14.7406 257.939 15.0906C257.594 15.4359 257.379 15.9166 257.295 16.5326H261.173ZM262.181 19.8576C262.027 20.0442 261.843 20.2076 261.628 20.3476C261.414 20.4829 261.183 20.5949 260.935 20.6836C260.693 20.7722 260.441 20.8376 260.179 20.8796C259.918 20.9262 259.659 20.9496 259.402 20.9496C258.912 20.9496 258.46 20.8679 258.044 20.7046C257.634 20.5366 257.277 20.2939 256.973 19.9766C256.675 19.6546 256.441 19.2579 256.273 18.7866C256.105 18.3152 256.021 17.7739 256.021 17.1626C256.021 16.6679 256.096 16.2059 256.245 15.7766C256.399 15.3472 256.619 14.9762 256.903 14.6636C257.188 14.3462 257.536 14.0989 257.946 13.9216C258.357 13.7396 258.819 13.6486 259.332 13.6486C259.757 13.6486 260.149 13.7209 260.508 13.8656C260.872 14.0056 261.185 14.2109 261.446 14.4816C261.712 14.7476 261.92 15.0789 262.069 15.4756C262.219 15.8676 262.293 16.3156 262.293 16.8196C262.293 17.0156 262.272 17.1462 262.23 17.2116C262.188 17.2769 262.109 17.3096 261.992 17.3096H257.253C257.267 17.7576 257.328 18.1472 257.435 18.4786C257.547 18.8099 257.701 19.0876 257.897 19.3116C258.093 19.5309 258.327 19.6966 258.597 19.8086C258.868 19.9159 259.171 19.9696 259.507 19.9696C259.82 19.9696 260.088 19.9346 260.312 19.8646C260.541 19.7899 260.737 19.7106 260.9 19.6266C261.064 19.5426 261.199 19.4656 261.306 19.3956C261.418 19.3209 261.514 19.2836 261.593 19.2836C261.696 19.2836 261.775 19.3232 261.831 19.4026L262.181 19.8576ZM265.007 15.1816C265.231 14.6962 265.506 14.3182 265.833 14.0476C266.16 13.7722 266.559 13.6346 267.03 13.6346C267.179 13.6346 267.322 13.6509 267.457 13.6836C267.597 13.7162 267.721 13.7676 267.828 13.8376L267.737 14.7686C267.709 14.8852 267.639 14.9436 267.527 14.9436C267.462 14.9436 267.366 14.9296 267.24 14.9016C267.114 14.8736 266.972 14.8596 266.813 14.8596C266.589 14.8596 266.388 14.8922 266.211 14.9576C266.038 15.0229 265.882 15.1209 265.742 15.2516C265.607 15.3776 265.483 15.5362 265.371 15.7276C265.264 15.9142 265.166 16.1289 265.077 16.3716V20.8516H263.824V13.7606H264.538C264.673 13.7606 264.767 13.7862 264.818 13.8376C264.869 13.8889 264.904 13.9776 264.923 14.1036L265.007 15.1816Z" fill="#4A5056"/>
</svg>
