<svg width="255" height="16" viewBox="0 0 255 16" fill="none" xmlns="http://www.w3.org/2000/svg">
<path d="M9.39425 8.76876C9.20257 8.35541 8.89976 8.00471 8.52032 7.75657C8.58446 7.70301 8.66717 7.62443 8.76844 7.52217C8.88449 7.4006 8.98442 7.26433 9.06571 7.11677C9.17131 6.9274 9.25487 6.72633 9.31471 6.51758C9.38836 6.25128 9.42337 5.97561 9.41865 5.69917C9.41697 5.28935 9.35191 4.88231 9.22582 4.49276C9.09786 4.08779 8.88142 3.71701 8.59248 3.4078C8.26041 3.06462 7.85794 2.79899 7.41333 2.62958C6.83299 2.41533 6.21774 2.31383 5.60003 2.33042H2.96543V4.84414H1.48798e-05V13.2318C-0.000465801 13.2893 0.0107042 13.3462 0.032837 13.3991C0.0549698 13.452 0.0875967 13.4998 0.128708 13.5395C0.168099 13.581 0.215508 13.6139 0.268 13.6361C0.320492 13.6584 0.376951 13.6695 0.433882 13.6689H5.93704C6.52856 13.6854 7.11747 13.5836 7.66984 13.3693C8.10575 13.1937 8.4975 12.9224 8.81665 12.575C9.10778 12.2518 9.32437 11.8676 9.45087 11.4498C9.57873 11.0299 9.64358 10.5929 9.64325 10.1536C9.65531 9.67962 9.57055 9.20822 9.39425 8.76876ZM2.96852 4.84102H5.4554C5.58748 4.83147 5.72012 4.84875 5.84546 4.89185C5.97081 4.93495 6.08632 5.003 6.18516 5.09195C6.26967 5.18112 6.33533 5.28671 6.37814 5.40231C6.42094 5.51791 6.43999 5.64109 6.43414 5.76436C6.44003 5.88757 6.42099 6.01069 6.37819 6.12623C6.33538 6.24176 6.2697 6.34727 6.18516 6.43633C6.08646 6.52553 5.97098 6.59376 5.84561 6.63694C5.72023 6.68013 5.58753 6.69738 5.4554 6.68768H2.96852V4.84102ZM6.38595 10.8748C6.28276 10.9714 6.16149 11.0462 6.02927 11.0949C5.89704 11.1436 5.75651 11.1651 5.61593 11.1583H2.96852V9.18264H5.61593C5.75649 9.17571 5.89699 9.19718 6.02922 9.24578C6.16145 9.29439 6.28273 9.36916 6.38595 9.46572C6.57087 9.65267 6.67474 9.90607 6.67474 10.1703C6.67474 10.4345 6.57087 10.6879 6.38595 10.8748V10.8748Z" fill="#272D71"/>
<path d="M24.2745 11.0784C24.3889 11.0799 24.4983 11.1266 24.5792 11.2083C24.6602 11.29 24.7063 11.4004 24.7079 11.5159V13.2331C24.7065 13.3486 24.6604 13.459 24.5793 13.5406C24.4983 13.6222 24.3889 13.6686 24.2745 13.6698H16.6697C16.5553 13.6686 16.4459 13.6222 16.3649 13.5406C16.2839 13.459 16.2378 13.3486 16.2363 13.2331V2.76881C16.2359 2.71131 16.247 2.65432 16.2692 2.60134C16.2913 2.54836 16.3239 2.50051 16.365 2.46072C16.4044 2.41932 16.4517 2.3865 16.5041 2.36431C16.5566 2.34212 16.6129 2.33102 16.6697 2.33169H24.1467C24.2036 2.33114 24.2599 2.3423 24.3123 2.36448C24.3647 2.38667 24.412 2.41942 24.4514 2.46072C24.4924 2.50061 24.5248 2.5485 24.5468 2.60147C24.5688 2.65444 24.5798 2.71138 24.5793 2.76881V4.48643C24.5782 4.60191 24.5323 4.71236 24.4514 4.79401C24.3705 4.87566 24.2611 4.92199 24.1467 4.92304H19.2048V6.67242H23.7933C23.9079 6.6739 24.0174 6.72052 24.0985 6.80234C24.1795 6.88417 24.2257 6.99472 24.2272 7.11043V8.82717C24.2256 8.94276 24.1794 9.05318 24.0983 9.13484C24.0173 9.2165 23.9078 9.26292 23.7933 9.26419H19.2048V11.0784H24.2745Z" fill="#272D71"/>
<path d="M39.6148 2.33169C39.6716 2.33109 39.7279 2.34223 39.7803 2.36442C39.8327 2.38661 39.8801 2.41938 39.9195 2.46072C39.9605 2.50059 39.9929 2.54846 40.015 2.60143C40.037 2.65439 40.0481 2.71133 40.0477 2.76878V4.48643C40.0465 4.60193 40.0005 4.71235 39.9195 4.79399C39.8386 4.87562 39.7292 4.92197 39.6148 4.92307H36.7904V13.2331C36.7891 13.3486 36.7431 13.459 36.6622 13.5406C36.5813 13.6223 36.4719 13.6688 36.3575 13.6701H34.2554C34.141 13.6689 34.0316 13.6224 33.9507 13.5407C33.8699 13.459 33.8239 13.3486 33.8228 13.2331V4.92307H30.9981C30.8837 4.92205 30.7742 4.87572 30.6933 4.79405C30.6124 4.71239 30.5665 4.60192 30.5655 4.48643V2.76878C30.565 2.71136 30.576 2.65442 30.598 2.60146C30.62 2.54849 30.6524 2.5006 30.6933 2.46072C30.7328 2.41945 30.7801 2.38673 30.8325 2.36454C30.8849 2.34236 30.9412 2.33118 30.998 2.33169H39.6148Z" fill="#272D71"/>
<path d="M55.3396 13.0691L51.8417 2.8647C51.7891 2.73111 51.7101 2.60973 51.6095 2.50797C51.5445 2.44578 51.4675 2.39787 51.3832 2.36728C51.2989 2.33669 51.2093 2.32409 51.1199 2.33026H48.5207C48.4313 2.32396 48.3417 2.33651 48.2574 2.3671C48.1731 2.3977 48.096 2.44567 48.0311 2.50797C47.9301 2.60947 47.8509 2.73091 47.7984 2.8647L44.3005 13.0691C44.2654 13.1457 44.2436 13.2279 44.236 13.312C44.2372 13.4062 44.2748 13.4963 44.3408 13.5629C44.4068 13.6296 44.496 13.6675 44.5893 13.6687H46.6109C46.7754 13.685 46.9396 13.6355 47.0682 13.5308C47.147 13.4588 47.2052 13.3668 47.2368 13.2643L47.6865 11.919H51.9539L52.4028 13.2643C52.4346 13.3667 52.4927 13.4587 52.5713 13.5308C52.7002 13.6355 52.8645 13.685 53.0291 13.6687H55.0503C55.1437 13.6679 55.2332 13.6301 55.2993 13.5634C55.3654 13.4966 55.4028 13.4064 55.4036 13.312C55.396 13.228 55.3744 13.1458 55.3396 13.0691ZM48.5207 9.4088L49.8201 5.52126L51.1199 9.4088H48.5207Z" fill="#272D71"/>
<path d="M69.6133 9.36251C69.5281 9.08316 69.4068 8.81638 69.2524 8.56907C69.1091 8.3394 68.9335 8.13199 68.731 7.95335C68.5432 7.78802 68.3358 7.64676 68.1136 7.53276C68.2887 7.44761 68.4529 7.34148 68.6028 7.21666C68.7792 7.07015 68.9333 6.89819 69.0601 6.70631C69.2057 6.4863 69.3194 6.24632 69.3975 5.99372C69.4868 5.69439 69.5299 5.38296 69.5253 5.07038C69.5276 4.69534 69.4652 4.32276 69.3409 3.96933C69.2163 3.62121 69.0162 3.3056 68.7553 3.04554C68.4669 2.76272 68.1223 2.5448 67.7443 2.40617C67.2811 2.23983 66.7918 2.16012 66.3003 2.17096H62.1129C61.8772 2.17096 61.7599 2.29553 61.7599 2.54377V13.1527C61.7529 13.2012 61.7573 13.2506 61.7726 13.297C61.7878 13.3435 61.8136 13.3857 61.8479 13.4203C61.8822 13.455 61.924 13.481 61.97 13.4965C62.016 13.512 62.0649 13.5164 62.1129 13.5095H66.4126C66.9069 13.5192 67.398 13.4284 67.8567 13.2425C68.2511 13.0798 68.6066 12.8342 68.8995 12.5218C69.1751 12.2238 69.3905 11.8744 69.5337 11.4931C69.6773 11.1129 69.7504 10.7093 69.7496 10.3024C69.7521 9.98388 69.7062 9.66689 69.6133 9.36251ZM62.7701 3.14341H66.0919C67.7062 3.14341 68.5138 3.78575 68.5147 5.07043C68.5314 5.35037 68.4852 5.6305 68.3796 5.88989C68.274 6.14928 68.1117 6.38123 67.9048 6.56839C67.4979 6.92025 66.8937 7.09587 66.092 7.09525H62.7701V3.14341ZM68.0973 11.9061C67.6696 12.3272 67.0545 12.5378 66.2522 12.5379H62.7701V8.06725H66.2522C67.0549 8.06725 67.67 8.27502 68.0973 8.69055C68.3101 8.89885 68.4773 9.14995 68.5879 9.42761C68.6985 9.70527 68.7501 10.0033 68.7394 10.3024C68.7486 10.6 68.6962 10.8964 68.5856 11.1725C68.4751 11.4486 68.3087 11.6985 68.0973 11.9061Z" fill="#272D71"/>
<path d="M78.2014 12.6988H83.7368C83.7869 12.6916 83.838 12.6962 83.886 12.7123C83.934 12.7284 83.9777 12.7555 84.0135 12.7916C84.0493 12.8277 84.0763 12.8717 84.0924 12.9202C84.1084 12.9686 84.1131 13.0202 84.106 13.0707V13.3136C84.106 13.5516 83.9829 13.6705 83.7367 13.6704H77.5441C77.4961 13.6773 77.4472 13.6729 77.4012 13.6574C77.3552 13.6419 77.3134 13.6159 77.2791 13.5812C77.2448 13.5466 77.2189 13.5044 77.2036 13.458C77.1883 13.4115 77.1839 13.3621 77.1908 13.3136V2.68861C77.1839 2.64015 77.1883 2.59073 77.2036 2.54428C77.2189 2.49783 77.2448 2.45562 77.2791 2.421C77.3134 2.38638 77.3552 2.3603 77.4012 2.34483C77.4472 2.32936 77.4961 2.32492 77.5441 2.33186H77.8489C77.8968 2.32501 77.9457 2.32952 77.9916 2.34504C78.0375 2.36056 78.0792 2.38666 78.1134 2.42127C78.1476 2.45589 78.1734 2.49807 78.1887 2.54447C78.2039 2.59087 78.2083 2.64022 78.2014 2.68861L78.2014 12.6988Z" fill="#272D71"/>
<path d="M98.6585 6.64064C98.6523 5.96983 98.5357 5.30473 98.3135 4.67252C98.1266 4.15104 97.8311 3.67605 97.4471 3.27951C97.0738 2.90442 96.6212 2.61945 96.1234 2.44593C95.0161 2.078 93.8212 2.078 92.7139 2.44593C92.2191 2.62065 91.7696 2.90555 91.3986 3.27951C91.0146 3.67605 90.7191 4.15105 90.5322 4.67254C90.3096 5.30467 90.1929 5.96981 90.1868 6.64066C90.1651 7.12733 90.1544 7.58111 90.1545 8.002C90.1545 8.42258 90.1653 8.87587 90.1868 9.36188C90.2292 10.8951 90.6117 12.0235 91.334 12.7471C92.0558 13.4709 93.0854 13.8328 94.4229 13.833C95.7488 13.833 96.7756 13.471 97.5033 12.7471C98.2304 12.0243 98.6154 10.8959 98.6585 9.36188C98.6801 8.87655 98.6909 8.42326 98.6907 8.002C98.6906 7.58074 98.6798 7.12695 98.6585 6.64064ZM97.6638 8.00196V8.60871C97.6638 8.81944 97.6585 9.04358 97.6479 9.28111C97.641 9.83544 97.546 10.3851 97.3666 10.909C97.2222 11.3228 96.9925 11.701 96.6926 12.0185C96.4126 12.3082 96.0692 12.5273 95.6899 12.6583C94.866 12.928 93.9788 12.928 93.1549 12.6583C92.7756 12.5273 92.4322 12.3082 92.1522 12.0185C91.8528 11.7007 91.6231 11.3226 91.4782 10.909C91.2987 10.3851 91.204 9.83543 91.1978 9.28111C91.1863 9.04351 91.1788 8.81946 91.1731 8.60871C91.1682 8.3984 91.1655 8.19569 91.1655 8.00196C91.1655 7.80678 91.168 7.6069 91.1731 7.40232C91.1788 7.19693 91.1863 6.97013 91.1978 6.72187C91.2055 6.17017 91.3001 5.62322 91.4782 5.10157C91.6222 4.68326 91.8551 4.30183 92.1607 3.98406C92.4445 3.69558 92.7903 3.47682 93.1712 3.34468C93.984 3.07439 94.8613 3.07439 95.6741 3.34468C96.0552 3.47681 96.4011 3.69556 96.6851 3.98406C96.9902 4.30202 97.2228 4.68342 97.3667 5.1016C97.5447 5.62329 97.6396 6.17018 97.6479 6.72189C97.6585 6.97015 97.6638 7.19696 97.6638 7.40234L97.6638 8.00196Z" fill="#272D71"/>
<path d="M106.616 6.63936C106.584 7.5359 106.584 8.44301 106.616 9.36069C106.659 10.5921 106.964 11.483 107.531 12.0334C108.097 12.5843 108.872 12.8596 109.857 12.8594C110.253 12.8628 110.648 12.822 111.035 12.7379C111.375 12.6651 111.697 12.5247 111.982 12.3249C112.264 12.1197 112.502 11.8578 112.68 11.5556C112.893 11.1808 113.045 10.7733 113.129 10.3492C113.136 10.2467 113.182 10.1509 113.257 10.0813C113.322 10.0327 113.401 10.0072 113.482 10.009H113.802C113.893 10.0069 113.982 10.0385 114.051 10.0978C114.085 10.1259 114.111 10.1623 114.126 10.2035C114.142 10.2446 114.146 10.2892 114.139 10.3327C114.112 10.7444 114.021 11.1492 113.867 11.5315C113.697 11.9559 113.44 12.3394 113.113 12.6571C112.733 13.0216 112.286 13.3077 111.798 13.4992C111.178 13.7358 110.519 13.8486 109.857 13.8314C109.216 13.8473 108.578 13.7343 107.98 13.4992C107.482 13.2964 107.035 12.9838 106.672 12.5843C106.318 12.1836 106.053 11.7113 105.894 11.199C105.717 10.6298 105.62 10.0384 105.605 9.44207C105.585 8.99958 105.574 8.52452 105.573 8.01689C105.573 7.50921 105.584 7.02299 105.605 6.55821C105.622 5.96447 105.719 5.37582 105.894 4.80887C106.052 4.29383 106.317 3.81894 106.672 3.41629C107.035 3.01707 107.482 2.70442 107.98 2.501C108.578 2.2658 109.216 2.15285 109.857 2.16871C110.519 2.15148 111.178 2.2643 111.798 2.50089C112.286 2.69286 112.733 2.97902 113.113 3.3434C113.44 3.66106 113.697 4.04477 113.867 4.46945C114.021 4.85161 114.113 5.25621 114.139 5.66782C114.146 5.71124 114.142 5.75573 114.126 5.79685C114.111 5.83798 114.085 5.8743 114.051 5.90222C113.982 5.96166 113.893 5.99341 113.802 5.99152H113.482C113.401 5.99311 113.322 5.9675 113.257 5.91873C113.182 5.84947 113.136 5.75401 113.129 5.65174C113.045 5.22736 112.893 4.81958 112.68 4.44444C112.502 4.14224 112.264 3.88035 111.982 3.67514C111.697 3.47551 111.375 3.33512 111.035 3.26215C110.648 3.17846 110.253 3.13773 109.857 3.14069C108.872 3.14069 108.097 3.41603 107.531 3.9667C106.964 4.51722 106.659 5.40811 106.616 6.63936" fill="#272D71"/>
<path d="M122.324 6.91555L127.186 2.57482C127.228 2.54223 127.297 2.49356 127.394 2.42926C127.515 2.35776 127.655 2.3239 127.795 2.33193H128.052C128.094 2.33179 128.136 2.34035 128.174 2.3571C128.213 2.37384 128.248 2.3984 128.276 2.42926C128.307 2.45835 128.331 2.49344 128.348 2.53237C128.364 2.5713 128.373 2.61325 128.373 2.65562C128.374 2.69444 128.368 2.73315 128.354 2.76939C128.34 2.80563 128.319 2.83863 128.292 2.86637L122.853 7.75763L128.63 13.1195C128.674 13.1648 128.704 13.2222 128.716 13.2845C128.728 13.3468 128.721 13.4113 128.697 13.47C128.673 13.5287 128.633 13.5789 128.581 13.6145C128.528 13.65 128.467 13.6693 128.404 13.67H128.132C127.992 13.6779 127.852 13.6443 127.731 13.5731C127.635 13.5084 127.564 13.4597 127.522 13.4271L122.324 8.63228V13.3137C122.324 13.5516 122.201 13.6699 121.955 13.6699H121.666C121.618 13.6769 121.569 13.6726 121.523 13.6571C121.477 13.6417 121.436 13.6157 121.401 13.5811C121.367 13.5465 121.341 13.5043 121.326 13.4579C121.31 13.4115 121.306 13.3621 121.313 13.3137V2.70474C121.313 2.45606 121.431 2.33179 121.666 2.33193H121.955C122.005 2.32476 122.056 2.32947 122.104 2.34569C122.152 2.36191 122.196 2.38918 122.232 2.42535C122.267 2.46153 122.294 2.5056 122.31 2.5541C122.326 2.60259 122.331 2.65416 122.323 2.70474L122.324 6.91555Z" fill="#272D71"/>
<path d="M138.451 2.16792C139.013 2.1567 139.573 2.24728 140.104 2.43538C140.532 2.58881 140.929 2.81936 141.275 3.11583C141.569 3.36988 141.809 3.68119 141.981 4.03112C142.133 4.33337 142.22 4.66454 142.237 5.00311C142.239 5.08577 142.21 5.16613 142.158 5.22949C142.125 5.26418 142.085 5.29095 142.04 5.3078C141.996 5.32466 141.948 5.33116 141.901 5.32683H141.58C141.509 5.32139 141.44 5.29922 141.379 5.26208C141.336 5.23417 141.299 5.19615 141.272 5.15113C141.246 5.10611 141.23 5.05538 141.227 5.00311C141.192 4.73152 141.099 4.47095 140.953 4.23996C140.808 4.00898 140.614 3.81327 140.384 3.66678C139.809 3.2934 139.134 3.10932 138.451 3.13993C138.084 3.13684 137.718 3.17503 137.36 3.25379C137.057 3.317 136.768 3.43791 136.51 3.61007C136.28 3.76553 136.091 3.97361 135.956 4.21729C135.817 4.48395 135.748 4.78242 135.756 5.08392C135.747 5.37058 135.811 5.65472 135.94 5.9099C136.084 6.15933 136.285 6.37045 136.526 6.5256C136.843 6.73492 137.182 6.90874 137.537 7.04399C137.943 7.2056 138.435 7.37824 139.013 7.56191C139.612 7.75614 140.133 7.94798 140.577 8.13743C140.973 8.29849 141.346 8.51361 141.684 8.77678C141.964 8.99698 142.189 9.27974 142.342 9.60279C142.495 9.96042 142.569 10.3475 142.559 10.7369C142.579 11.1774 142.492 11.6162 142.304 12.0145C142.117 12.4128 141.835 12.7583 141.483 13.0202C140.767 13.5613 139.783 13.8316 138.531 13.831C137.944 13.8407 137.359 13.7558 136.798 13.5796C136.34 13.435 135.908 13.2133 135.523 12.9238C135.193 12.6744 134.919 12.3567 134.721 11.9919C134.539 11.6618 134.437 11.2929 134.423 10.9155C134.423 10.8729 134.432 10.8308 134.448 10.7916C134.465 10.7526 134.49 10.7173 134.52 10.6882C134.552 10.6564 134.589 10.6314 134.63 10.6147C134.672 10.5981 134.716 10.5901 134.76 10.5913H135.082C135.126 10.5879 135.171 10.5948 135.213 10.6116C135.255 10.6284 135.292 10.6546 135.322 10.6882C135.377 10.7542 135.415 10.832 135.435 10.9155C135.472 11.1579 135.554 11.3912 135.675 11.6035C135.818 11.8509 136.012 12.0637 136.245 12.2268C136.532 12.4277 136.849 12.581 137.184 12.6808C137.621 12.8081 138.076 12.868 138.531 12.8585C139.579 12.8585 140.344 12.6668 140.826 12.2834C141.059 12.1024 141.247 11.8676 141.373 11.5985C141.498 11.3295 141.558 11.0341 141.548 10.7368C141.557 10.4498 141.485 10.1661 141.34 9.91932C141.174 9.67243 140.954 9.46728 140.697 9.31967C140.351 9.11397 139.986 8.94304 139.607 8.80935C139.168 8.64681 138.649 8.46866 138.05 8.2749C137.544 8.11877 137.049 7.93211 136.565 7.71591C136.193 7.55222 135.847 7.3339 135.539 7.06805C135.276 6.83859 135.07 6.55001 134.938 6.22554C134.801 5.86117 134.735 5.47347 134.744 5.08387C134.741 4.68756 134.825 4.29545 134.992 3.9366C135.159 3.57775 135.403 3.26135 135.707 3.01083C136.05 2.73346 136.442 2.52452 136.863 2.3952C137.377 2.23594 137.913 2.15925 138.451 2.16792Z" fill="#272D71"/>
<path d="M152.562 0.335449V15.6646" stroke="#AEB5BC" stroke-width="0.766457"/>
<path fill-rule="evenodd" clip-rule="evenodd" d="M162.562 2.44323C162.562 2.23157 162.733 2.06 162.945 2.06H167.735C169.322 2.06 170.609 3.34683 170.609 4.93421C170.609 5.88399 170.149 6.72618 169.439 7.2495C170.256 7.92624 170.801 9.07507 170.801 10.1078C170.801 11.6952 169.514 13.5569 167.927 13.5569H162.945C162.733 13.5569 162.562 13.3853 162.562 13.1736V2.44323ZM163.711 12.4072H167.927C168.879 12.4072 169.651 11.0602 169.651 10.1078C169.651 9.15537 168.879 7.80843 167.927 7.80843H167.735H163.711V12.4072ZM167.735 6.65874C168.688 6.65874 169.46 5.88664 169.46 4.93421C169.46 3.98178 168.688 3.20968 167.735 3.20968H163.711V6.65874H167.735Z" fill="#0316E1"/>
<path fill-rule="evenodd" clip-rule="evenodd" d="M178.465 2.06C178.677 2.06 178.849 2.23157 178.849 2.44323V10.2994C178.849 11.6751 179.964 12.7904 181.34 12.7904H182.873C184.248 12.7904 185.364 11.6751 185.364 10.2994V2.44323C185.364 2.23157 185.535 2.06 185.747 2.06H186.13C186.342 2.06 186.513 2.23157 186.513 2.44323V10.2994C186.513 12.3101 184.883 13.9401 182.873 13.9401H181.34C179.329 13.9401 177.699 12.3101 177.699 10.2994V2.44323C177.699 2.23157 177.871 2.06 178.082 2.06H178.465Z" fill="#0316E1"/>
<path fill-rule="evenodd" clip-rule="evenodd" d="M194.721 3.03154H193.784C193.734 3.03884 193.683 3.03426 193.634 3.01816C193.586 3.00207 193.543 2.97484 193.507 2.93882L193.471 2.89532C193.451 2.86931 193.438 2.84068 193.429 2.81027C193.42 2.78445 193.414 2.75769 193.412 2.73074C193.411 2.70716 193.411 2.68331 193.414 2.65963V2.41675C193.414 2.17882 193.538 2.0599 193.784 2.06H196.671C196.917 2.0599 197.041 2.17882 197.041 2.41675V2.65963C197.047 2.71025 197.043 2.7618 197.026 2.81027L197.011 2.85087L196.984 2.89532L196.948 2.93882C196.912 2.97484 196.869 3.00207 196.821 3.01816C196.772 3.03426 196.721 3.03884 196.671 3.03154H195.734V12.4269H196.671C196.721 12.4196 196.772 12.4242 196.821 12.4403C196.869 12.4564 196.912 12.4836 196.948 12.5196C196.965 12.5369 196.981 12.556 196.995 12.5765L197.014 12.6132L197.026 12.6482C197.043 12.6966 197.047 12.7482 197.041 12.7988V13.0417C197.041 13.2796 196.917 13.3985 196.671 13.3985H193.784C193.64 13.3985 193.538 13.3582 193.478 13.2776C193.436 13.2197 193.414 13.1411 193.414 13.0417V12.7988C193.408 12.7482 193.412 12.6966 193.429 12.6482L193.438 12.6251C193.442 12.6081 193.451 12.592 193.46 12.5765L193.489 12.5401L193.507 12.5196C193.543 12.4836 193.586 12.4564 193.634 12.4403C193.659 12.4319 193.686 12.4265 193.712 12.4245C193.736 12.4226 193.76 12.4234 193.784 12.4269H194.721V3.03154Z" fill="#0316E1"/>
<path d="M204.956 12.4302H210.491C210.541 12.4229 210.592 12.4275 210.64 12.4436C210.688 12.4597 210.732 12.4869 210.768 12.5229C210.803 12.559 210.83 12.603 210.847 12.6515C210.863 12.6999 210.867 12.7515 210.86 12.8021V13.045C210.86 13.2829 210.737 13.4018 210.491 13.4017H204.298C204.25 13.4087 204.201 13.4042 204.155 13.3887C204.109 13.3733 204.068 13.3472 204.033 13.3126C203.999 13.2779 203.973 13.2357 203.958 13.1893C203.942 13.1428 203.938 13.0934 203.945 13.045V2.41993C203.938 2.37147 203.942 2.32206 203.958 2.27561C203.973 2.22916 203.999 2.18695 204.033 2.15233C204.068 2.11771 204.109 2.09163 204.155 2.07615C204.201 2.06068 204.25 2.05624 204.298 2.06318H204.603C204.651 2.05633 204.7 2.06084 204.746 2.07636C204.792 2.09188 204.833 2.11798 204.868 2.1526C204.902 2.18721 204.928 2.22939 204.943 2.27579C204.958 2.32219 204.962 2.37154 204.956 2.41993L204.956 12.4302Z" fill="#0316E1"/>
<path fill-rule="evenodd" clip-rule="evenodd" d="M225.346 3.85934C225.47 4.21277 225.532 4.58535 225.53 4.9604C225.556 6.72602 225.544 8.44742 225.53 10.1924C225.531 10.5993 225.489 11.0029 225.346 11.3831C225.203 11.7644 224.987 12.1138 224.712 12.4119C224.419 12.7242 224.063 12.9698 223.669 13.1325C223.21 13.3185 222.719 13.4093 222.225 13.3995H218.118C218.07 13.4064 218.021 13.402 217.975 13.3865C217.929 13.3711 217.887 13.345 217.853 13.3103C217.818 13.2757 217.793 13.2335 217.777 13.187C217.762 13.1406 217.758 13.0912 217.765 13.0427V2.43378C217.765 2.18555 217.882 2.06097 218.118 2.06097H222.305C222.797 2.05014 223.286 2.12984 223.749 2.29618C224.127 2.43482 224.472 2.65273 224.76 2.93556C225.021 3.19561 225.221 3.51123 225.346 3.85934ZM218.775 3.03341H222.097C223.711 3.03341 224.519 3.67575 224.52 4.96043V10.1924C224.529 10.49 224.476 10.7864 224.366 11.0625C224.255 11.3386 224.089 11.5885 223.877 11.7961C223.45 12.2172 222.835 12.4278 222.032 12.4279H218.775V7.95726V6.98525V3.03341Z" fill="#0316E1"/>
<path fill-rule="evenodd" clip-rule="evenodd" d="M233.593 3.20968H239.342C239.551 3.20968 239.725 3.03753 239.725 2.82645V2.44323C239.725 2.23215 239.551 2.06 239.342 2.06H232.827C232.617 2.06 232.444 2.23215 232.444 2.44323V13.1736C232.444 13.3847 232.617 13.5569 232.827 13.5569H239.342C239.551 13.5569 239.725 13.3847 239.725 13.1736V12.7904C239.725 12.5793 239.551 12.4072 239.342 12.4072H233.593V8.19165H237.809C238.018 8.19165 238.192 8.0195 238.192 7.80843V7.4252C238.192 7.21412 238.018 7.04197 237.809 7.04197H233.593V3.20968Z" fill="#0316E1"/>
<path fill-rule="evenodd" clip-rule="evenodd" d="M251.797 2.06C253.384 2.06 254.671 3.34683 254.671 4.93421C254.671 5.88399 254.21 6.72618 253.5 7.2495C253.5 7.2495 252.959 7.64161 252.236 7.76898C252.587 8.71987 253.764 11.8038 254.236 13.0386C254.332 13.2896 254.146 13.5569 253.877 13.5569H253.563C253.404 13.5569 253.261 13.4583 253.204 13.3094L251.121 7.80843H247.773V13.1736C247.773 13.3853 247.601 13.5569 247.39 13.5569H247.006C246.795 13.5569 246.623 13.3853 246.623 13.1736V2.44323C246.623 2.23157 246.795 2.06 247.006 2.06H251.797ZM253.521 4.93421C253.521 5.88664 252.749 6.65874 251.797 6.65874H247.773V3.20968H251.797C252.749 3.20968 253.521 3.98178 253.521 4.93421Z" fill="#0316E1"/>
</svg>
