<svg width="20" height="21" viewBox="0 0 20 21" fill="none" xmlns="http://www.w3.org/2000/svg">
<path fill-rule="evenodd" clip-rule="evenodd" d="M0 10.8516C0 5.33156 4.48 0.851562 10 0.851562C15.52 0.851562 20 5.33156 20 10.8516C20 16.3716 15.52 20.8516 10 20.8516C4.48 20.8516 0 16.3716 0 10.8516ZM11 14.8516V16.8516H9V14.8516H11ZM10 18.8516C5.59 18.8516 2 15.2616 2 10.8516C2 6.44156 5.59 2.85156 10 2.85156C14.41 2.85156 18 6.44156 18 10.8516C18 15.2616 14.41 18.8516 10 18.8516ZM6 8.85156C6 6.64156 7.79 4.85156 10 4.85156C12.21 4.85156 14 6.64156 14 8.85156C14 10.1345 13.21 10.8249 12.4408 11.4971C11.711 12.1348 11 12.7562 11 13.8516H9C9 12.0303 9.94212 11.3082 10.7704 10.6732C11.4202 10.1752 12 9.73078 12 8.85156C12 7.75156 11.1 6.85156 10 6.85156C8.9 6.85156 8 7.75156 8 8.85156H6Z" fill="#0316E1"/>
</svg>
