<svg width="24" height="25" viewBox="0 0 24 25" fill="none" xmlns="http://www.w3.org/2000/svg">
<path fill-rule="evenodd" clip-rule="evenodd" d="M17 9.35156H18C19.1 9.35156 20 10.2516 20 11.3516V21.3516C20 22.4516 19.1 23.3516 18 23.3516H6C4.9 23.3516 4 22.4516 4 21.3516V11.3516C4 10.2516 4.9 9.35156 6 9.35156H7V7.35156C7 4.59156 9.24 2.35156 12 2.35156C14.76 2.35156 17 4.59156 17 7.35156V9.35156ZM12 4.35156C10.34 4.35156 9 5.69156 9 7.35156V9.35156H15V7.35156C15 5.69156 13.66 4.35156 12 4.35156ZM6 21.3516V11.3516H18V21.3516H6ZM14 16.3516C14 17.4516 13.1 18.3516 12 18.3516C10.9 18.3516 10 17.4516 10 16.3516C10 15.2516 10.9 14.3516 12 14.3516C13.1 14.3516 14 15.2516 14 16.3516Z" fill="#6E757C"/>
</svg>
