<svg width="24" height="25" viewBox="0 0 24 25" fill="none" xmlns="http://www.w3.org/2000/svg">
<path fill-rule="evenodd" clip-rule="evenodd" d="M12 2.35156C6.48 2.35156 2 6.83156 2 12.3516C2 17.8716 6.48 22.3516 12 22.3516C17.52 22.3516 22 17.8716 22 12.3516C22 6.83156 17.52 2.35156 12 2.35156ZM12 20.3516C7.58 20.3516 4 16.7716 4 12.3516C4 7.93156 7.58 4.35156 12 4.35156C16.42 4.35156 20 7.93156 20 12.3516C20 16.7716 16.42 20.3516 12 20.3516ZM7 12.3516C7 9.59014 9.23858 7.35156 12 7.35156C14.7614 7.35156 17 9.59014 17 12.3516C17 15.113 14.7614 17.3516 12 17.3516C9.23858 17.3516 7 15.113 7 12.3516Z" fill="#9314F5"/>
</svg>
