<svg width="24" height="25" viewBox="0 0 24 25" fill="none" xmlns="http://www.w3.org/2000/svg">
<path fill-rule="evenodd" clip-rule="evenodd" d="M2 12.5C2 6.98 6.48 2.5 12 2.5C17.52 2.5 22 6.98 22 12.5C22 18.02 17.52 22.5 12 22.5C6.48 22.5 2 18.02 2 12.5ZM13 16.5V18.5H11V16.5H13ZM12 20.5C7.59 20.5 4 16.91 4 12.5C4 8.09 7.59 4.5 12 4.5C16.41 4.5 20 8.09 20 12.5C20 16.91 16.41 20.5 12 20.5ZM8 10.5C8 8.29 9.79 6.5 12 6.5C14.21 6.5 16 8.29 16 10.5C16 11.7829 15.21 12.4733 14.4408 13.1455C13.711 13.7833 13 14.4046 13 15.5H11C11 13.6787 11.9421 12.9566 12.7704 12.3217C13.4202 11.8236 14 11.3792 14 10.5C14 9.4 13.1 8.5 12 8.5C10.9 8.5 10 9.4 10 10.5H8Z" fill="#0316E1"/>
</svg>
